<svg width="342" height="262" viewBox="0 0 342 262" fill="none" xmlns="http://www.w3.org/2000/svg">
<ellipse cx="170.963" cy="239.804" rx="126.52" ry="22.1965" fill="#D9D9D9"/>
<path d="M61.751 241.992H111.171L111.171 134.65H61.751L61.751 241.992Z" fill="url(#paint0_linear_636_47028)"/>
<g opacity="0.89">
<path d="M72.3212 215.222H115.259C115.329 215.222 115.385 215.165 115.385 215.095V170.326C115.385 170.256 115.329 170.199 115.259 170.199H72.3212C72.2515 170.199 72.1949 170.256 72.1949 170.326V215.095C72.1949 215.165 72.2515 215.222 72.3212 215.222Z" fill="white"/>
<path d="M92.0444 172.633H75.4146C75.376 172.633 75.3447 172.665 75.3447 172.703V212.719C75.3447 212.757 75.376 212.789 75.4146 212.789H92.0444C92.083 212.789 92.1143 212.757 92.1143 212.719V172.703C92.1143 172.665 92.083 172.633 92.0444 172.633Z" fill="#7D97F4"/>
<path d="M112.167 172.633H95.5377C95.4991 172.633 95.4678 172.665 95.4678 172.703V212.719C95.4678 212.757 95.4991 212.789 95.5377 212.789H112.167C112.206 212.789 112.237 212.757 112.237 212.719V172.703C112.237 172.665 112.206 172.633 112.167 172.633Z" fill="#7D97F4"/>
</g>
<path d="M131.337 83.4567L59.7388 85.9878C59.342 86.0014 58.8753 86.4349 58.6972 86.9554L40.0756 141.24C39.8942 141.768 40.0689 142.193 40.4657 142.189L111.991 141.504C112.415 141.5 112.905 141.054 113.086 140.508L131.78 84.4039C131.959 83.8665 131.761 83.4431 131.337 83.4578V83.4567Z" fill="#6A6AF4"/>
<path d="M80.2317 89.0259L60.749 89.6818C60.351 89.6954 59.8844 90.1289 59.7052 90.6505L55.4274 103.132C55.2482 103.655 55.4251 104.071 55.823 104.06L75.3002 103.533C75.7048 103.522 76.1794 103.085 76.3586 102.557L80.642 89.955C80.8212 89.4289 80.6375 89.0135 80.2317 89.027V89.0259Z" fill="#8C8CF9"/>
<path d="M103.656 88.2379L83.7574 88.9073C83.3516 88.9209 82.877 89.3589 82.6978 89.8862L78.4144 102.499C78.2351 103.027 78.4189 103.447 78.8247 103.436L98.7189 102.898C99.1325 102.886 99.6139 102.445 99.7931 101.911L104.081 89.176C104.26 88.6443 104.07 88.2243 103.656 88.2379Z" fill="#8C8CF9"/>
<path d="M127.587 87.4329L107.259 88.117C106.844 88.1306 106.363 88.5743 106.184 89.106L101.895 101.853C101.715 102.387 101.906 102.812 102.321 102.8L122.645 102.25C123.068 102.238 123.557 101.791 123.737 101.252L128.029 88.3801C128.208 87.8427 128.011 87.4182 127.588 87.4329H127.587Z" fill="#8C8CF9"/>
<path d="M74.3879 106.21L54.9119 106.714C54.514 106.724 54.0462 107.157 53.8669 107.68L49.5689 120.221C49.3885 120.747 49.5644 121.167 49.9623 121.159L69.4315 120.784C69.8362 120.776 70.3107 120.339 70.4911 119.809L74.7948 107.148C74.974 106.62 74.7914 106.2 74.3867 106.21H74.3879Z" fill="#8C8CF9"/>
<path d="M97.806 105.604L77.9129 106.119C77.5071 106.129 77.0315 106.567 76.8522 107.096L72.5485 119.769C72.3682 120.3 72.5508 120.724 72.9566 120.716L92.844 120.334C93.2577 120.326 93.739 119.884 93.9205 119.348L98.2298 106.552C98.4102 106.018 98.2197 105.594 97.806 105.604Z" fill="#8C8CF9"/>
<path d="M121.731 104.985L101.407 105.511C100.992 105.521 100.51 105.964 100.331 106.499L96.0214 119.306C95.841 119.842 96.0304 120.271 96.4452 120.264L116.764 119.872C117.187 119.864 117.676 119.418 117.857 118.875L122.17 105.942C122.351 105.403 122.154 104.974 121.731 104.984V104.985Z" fill="#8C8CF9"/>
<path d="M68.5186 123.475L49.0505 123.827C48.6526 123.833 48.1848 124.266 48.0045 124.792L43.6872 137.39C43.5058 137.918 43.6816 138.343 44.0795 138.338L63.542 138.117C63.9466 138.113 64.4223 137.677 64.6027 137.143L68.9267 124.423C69.107 123.891 68.9255 123.466 68.5209 123.474L68.5186 123.475Z" fill="#8C8CF9"/>
<path d="M91.9284 123.053L72.0421 123.412C71.6363 123.419 71.1607 123.857 70.9803 124.388L66.6563 137.12C66.4748 137.654 66.6563 138.083 67.0632 138.079L86.9439 137.853C87.3576 137.848 87.84 137.407 88.0215 136.869L92.3511 124.013C92.5315 123.475 92.3433 123.046 91.9296 123.054L91.9284 123.053Z" fill="#8C8CF9"/>
<path d="M115.847 122.621L95.529 122.988C95.1142 122.996 94.6318 123.437 94.4503 123.974L89.7915 137.819L110.856 137.58C111.278 137.575 111.769 137.129 111.95 136.585L116.284 123.589C116.466 123.046 116.27 122.613 115.847 122.621Z" fill="#8C8CF9"/>
<path d="M234.83 139.426H284.25V240.746C284.25 241.433 283.692 241.992 283.006 241.992H234.83V139.426Z" fill="url(#paint1_linear_636_47028)"/>
<g opacity="0.89">
<path d="M273.681 170.653H237.72C237.65 170.653 237.594 170.71 237.594 170.78V215.265C237.594 215.334 237.65 215.391 237.72 215.391H273.681C273.751 215.391 273.808 215.334 273.808 215.265V170.78C273.808 170.71 273.751 170.653 273.681 170.653Z" fill="white"/>
<path d="M254.225 173.071H240.304C240.265 173.071 240.234 173.103 240.234 173.141V212.903C240.234 212.941 240.265 212.973 240.304 212.973H254.225C254.263 212.973 254.295 212.941 254.295 212.903V173.141C254.295 173.103 254.263 173.071 254.225 173.071Z" fill="#7D97F4"/>
<path d="M271.097 173.071H257.177C257.138 173.071 257.107 173.103 257.107 173.141V212.903C257.107 212.941 257.138 212.973 257.177 212.973H271.097C271.135 212.973 271.167 212.941 271.167 212.903V173.141C271.167 173.103 271.135 173.071 271.097 173.071Z" fill="#7D97F4"/>
</g>
<path d="M213.393 84.2999L285.871 86.8458C286.274 86.8604 286.745 87.2951 286.926 87.8189L305.777 142.423C305.961 142.954 305.784 143.381 305.382 143.378L232.979 142.688C232.551 142.684 232.054 142.236 231.87 141.687L212.946 85.2517C212.765 84.7109 212.965 84.2853 213.395 84.2999H213.393Z" fill="#6A6AF4"/>
<path d="M265.126 89.9019L284.847 90.5612C285.25 90.5748 285.723 91.0106 285.904 91.5356L290.234 104.091C290.416 104.617 290.237 105.035 289.834 105.025L270.118 104.494C269.708 104.483 269.229 104.043 269.046 103.512L264.71 90.8356C264.528 90.3061 264.714 89.8884 265.124 89.9019H265.126Z" fill="#8C8CF9"/>
<path d="M241.412 89.1094L261.556 89.7823C261.967 89.7958 262.447 90.2361 262.628 90.7667L266.964 103.454C267.146 103.986 266.96 104.408 266.549 104.397L246.411 103.855C245.991 103.844 245.504 103.399 245.323 102.863L240.982 90.0521C240.8 89.5169 240.993 89.0947 241.412 89.1094Z" fill="#7D97F4"/>
<path d="M217.188 88.3L237.766 88.9875C238.186 89.001 238.673 89.447 238.855 89.9821L243.197 102.804C243.378 103.341 243.186 103.768 242.766 103.757L222.192 103.202C221.764 103.191 221.269 102.742 221.088 102.199L216.742 89.2517C216.561 88.7109 216.76 88.2842 217.189 88.2988L217.188 88.3Z" fill="#7D97F4"/>
<path d="M271.041 107.188L290.756 107.695C291.158 107.705 291.631 108.141 291.813 108.667L296.164 121.281C296.347 121.809 296.168 122.231 295.766 122.225L276.057 121.847C275.646 121.84 275.166 121.4 274.984 120.866L270.627 108.132C270.445 107.6 270.63 107.178 271.039 107.188H271.041Z" fill="#8C8CF9"/>
<path d="M247.334 106.578L267.472 107.096C267.883 107.106 268.363 107.547 268.546 108.08L272.903 120.827C273.085 121.361 272.9 121.788 272.489 121.78L252.357 121.395C251.939 121.387 251.451 120.943 251.268 120.403L246.907 107.533C246.724 106.996 246.917 106.569 247.335 106.579L247.334 106.578Z" fill="#8C8CF9"/>
<path d="M223.115 105.955L243.688 106.484C244.109 106.496 244.597 106.941 244.778 107.478L249.141 120.361C249.323 120.9 249.132 121.332 248.711 121.324L228.143 120.93C227.715 120.922 227.22 120.472 227.037 119.927L222.67 106.918C222.488 106.375 222.687 105.944 223.115 105.954V105.955Z" fill="#8C8CF9"/>
<path d="M276.982 124.555L296.69 124.908C297.092 124.915 297.567 125.351 297.75 125.879L302.121 138.552C302.305 139.082 302.127 139.51 301.724 139.506L282.023 139.283C281.614 139.279 281.132 138.84 280.949 138.303L276.572 125.509C276.389 124.975 276.573 124.547 276.983 124.555H276.982Z" fill="#8C8CF9"/>
<path d="M253.285 124.129L273.416 124.49C273.827 124.498 274.308 124.938 274.491 125.473L278.868 138.28C279.052 138.816 278.868 139.248 278.456 139.244L258.331 139.017C257.913 139.012 257.424 138.569 257.24 138.027L252.857 125.096C252.675 124.556 252.865 124.124 253.285 124.131V124.129Z" fill="#8C8CF9"/>
<path d="M229.072 123.696L249.64 124.065C250.06 124.073 250.549 124.516 250.731 125.057L255.446 138.984L234.123 138.744C233.696 138.739 233.2 138.291 233.015 137.742L228.628 124.671C228.444 124.125 228.642 123.689 229.071 123.697L229.072 123.696Z" fill="#8C8CF9"/>
<path d="M104.34 140.754V246.205H239.181C240.551 246.205 241.66 245.093 241.66 243.723V140.754H104.34Z" fill="url(#paint2_linear_636_47028)"/>
<path d="M243.266 81.7722L242.099 80.8894V79.6599H240.476L173.001 28.5828L104.779 79.6599V140.754H242.099V88.0719L243.266 81.7722Z" fill="url(#paint3_linear_636_47028)"/>
<path d="M214.48 34.5234H203.123V53.0465H214.48V34.5234Z" fill="#7D97F4"/>
<path d="M218.225 37.5242H199.866V32.524C199.866 32.1435 200.174 31.8353 200.554 31.8353H217.18C217.757 31.8353 218.226 32.3039 218.226 32.883V37.5231L218.225 37.5242Z" fill="#7D97F4"/>
<path d="M100.188 89.3882L173.058 33.417L242.227 87.154C244.74 89.1071 248.429 87.7388 249.066 84.6172L250.036 79.8642L173.058 21.1315L98.5454 78.1335C97.2108 79.1541 96.7272 80.9446 97.3652 82.5004L100.189 89.3882H100.188Z" fill="url(#paint4_linear_636_47028)"/>
<path d="M244.656 139.5H101.346C100.843 139.5 100.435 139.909 100.435 140.413V146.464C100.435 146.968 100.843 147.377 101.346 147.377H244.656C245.16 147.377 245.568 146.968 245.568 146.464V140.413C245.568 139.909 245.16 139.5 244.656 139.5Z" fill="url(#paint5_linear_636_47028)"/>
<path d="M127.481 132.01H216.99C217.06 132.01 217.116 131.954 217.116 131.884V88.5325C217.116 88.4627 217.06 88.4061 216.99 88.4061L127.481 88.4061C127.412 88.4061 127.355 88.4627 127.355 88.5325V131.884C127.355 131.954 127.412 132.01 127.481 132.01Z" fill="white"/>
<path d="M130.536 129.653H156.575C156.613 129.653 156.645 129.622 156.645 129.583V90.8322C156.645 90.7936 156.613 90.7622 156.575 90.7622H130.536C130.497 90.7622 130.466 90.7936 130.466 90.8322V129.583C130.466 129.622 130.497 129.653 130.536 129.653Z" fill="#91B3FA"/>
<path d="M159.332 129.765H185.371C185.409 129.765 185.44 129.734 185.44 129.695V90.9439C185.44 90.9053 185.409 90.8739 185.371 90.8739H159.332C159.293 90.8739 159.262 90.9053 159.262 90.9439V129.695C159.262 129.734 159.293 129.765 159.332 129.765Z" fill="#91B3FA"/>
<path d="M188.127 129.432H214.166C214.205 129.432 214.236 129.401 214.236 129.362V90.6109C214.236 90.5723 214.205 90.5409 214.166 90.5409H188.127C188.089 90.5409 188.057 90.5723 188.057 90.6109V129.362C188.057 129.401 188.089 129.432 188.127 129.432Z" fill="#91B3FA"/>
<g opacity="0.85">
<path d="M236.513 162.29H200.265C200.07 162.29 199.911 162.448 199.911 162.644V239.605C199.911 239.801 200.07 239.96 200.265 239.96H236.513C236.708 239.96 236.867 239.801 236.867 239.605V162.644C236.867 162.448 236.708 162.29 236.513 162.29Z" fill="white"/>
</g>
<path d="M234.91 164.271H201.637C201.442 164.271 201.283 164.43 201.283 164.626V237.494C201.283 237.69 201.442 237.849 201.637 237.849H234.91C235.106 237.849 235.264 237.69 235.264 237.494V164.626C235.264 164.43 235.106 164.271 234.91 164.271Z" fill="#91B3FA"/>
<path opacity="0.85" d="M219.611 164.271H217.596V238.66H219.611V164.271Z" fill="white"/>
<path opacity="0.85" d="M236.037 187.335H200.716V189.284H236.037V187.335Z" fill="white"/>
<path opacity="0.85" d="M235.392 212.186H200.924V214.297H235.392V212.186Z" fill="white"/>
<path opacity="0.85" d="M145.177 162.94H108.929C108.734 162.94 108.575 163.099 108.575 163.294V240.256C108.575 240.451 108.734 240.61 108.929 240.61H145.177C145.372 240.61 145.531 240.451 145.531 240.256V163.294C145.531 163.099 145.372 162.94 145.177 162.94Z" fill="white"/>
<path d="M143.574 164.921H110.301C110.106 164.921 109.947 165.08 109.947 165.276V238.144C109.947 238.34 110.106 238.499 110.301 238.499H143.574C143.77 238.499 143.928 238.34 143.928 238.144V165.276C143.928 165.08 143.77 164.921 143.574 164.921Z" fill="#91B3FA"/>
<path opacity="0.85" d="M128.275 164.921H126.26V239.311H128.275V164.921Z" fill="white"/>
<path opacity="0.85" d="M144.702 187.985H109.38V189.934H144.702V187.985Z" fill="white"/>
<path opacity="0.85" d="M144.057 212.835H109.589V214.946H144.057V212.835Z" fill="white"/>
<path opacity="0.85" d="M173.922 73.1388C179.916 73.1388 184.776 68.2717 184.776 62.2679C184.776 56.264 179.916 51.397 173.922 51.397C167.927 51.397 163.068 56.264 163.068 62.2679C163.068 68.2717 167.927 73.1388 173.922 73.1388Z" fill="white"/>
<path d="M180.609 68.8826C184.256 65.2299 184.256 59.3075 180.609 55.6547C176.962 52.0019 171.049 52.0019 167.402 55.6547C163.755 59.3075 163.755 65.2299 167.402 68.8826C171.049 72.5354 176.962 72.5354 180.609 68.8826Z" fill="#7D97F4"/>
<path d="M152.799 156.42H192.517C192.738 156.42 192.918 156.601 192.918 156.822V237.324H152.398V156.822C152.398 156.601 152.578 156.42 152.799 156.42Z" fill="url(#paint6_linear_636_47028)"/>
<path d="M155.091 160.279H189.819C190.04 160.279 190.22 160.46 190.22 160.681V236.813H154.689V160.681C154.689 160.46 154.87 160.279 155.091 160.279Z" fill="url(#paint7_linear_636_47028)"/>
<path d="M148.773 234.596H196.785C196.983 234.596 197.143 234.756 197.143 234.954V243.527H148.416V234.954C148.416 234.756 148.576 234.596 148.773 234.596Z" fill="url(#paint8_linear_636_47028)"/>
<path d="M146.706 242.524H200.417C200.614 242.524 200.774 242.684 200.774 242.882V251.728H146.349V242.882C146.349 242.684 146.509 242.524 146.706 242.524Z" fill="url(#paint9_linear_636_47028)"/>
<path d="M130.854 87.9917C147.028 71.7929 147.028 45.5294 130.854 29.3306C114.681 13.1317 88.4583 13.1317 72.2848 29.3305C56.1113 45.5294 56.1112 71.7929 72.2848 87.9917C88.4583 104.191 114.681 104.191 130.854 87.9917Z" fill="white"/>
<path d="M127.583 84.7155C141.95 70.326 141.95 46.9962 127.583 32.6068C113.217 18.2174 89.9231 18.2174 75.5561 32.6068C61.1892 46.9962 61.1892 70.3261 75.5561 84.7155C89.9231 99.1049 113.217 99.1049 127.583 84.7155Z" fill="#6A6AF4"/>
<path d="M97.1939 66.175H102.552L102.951 61.957C110.019 60.76 115.092 56.485 115.092 49.816C115.092 42.577 109.05 37.96 102.324 37.96C96.2819 37.96 91.9499 40.639 88.7579 45.712L94.9709 49.531C97.0799 46.396 98.9609 44.8 101.982 44.8C104.946 44.8 107.226 46.852 107.226 49.816C107.226 54.661 102.894 56.086 96.2819 56.77L97.1939 66.175ZM99.9299 79.684C102.552 79.684 104.889 77.404 104.889 74.725C104.889 72.046 102.552 69.766 99.9299 69.766C97.1939 69.766 94.9139 72.046 94.9139 74.725C94.9139 77.404 97.1939 79.684 99.9299 79.684Z" fill="white"/>
<path d="M35.3214 245.505C35.3214 245.505 34.6991 248.85 34.378 252.163C34.2521 253.458 35.2391 254.592 36.5366 254.66C40.9445 254.886 50.3731 255.334 53.7587 255.215C54.2681 255.197 54.6057 254.678 54.4211 254.202C54.267 253.804 53.9658 253.48 53.5799 253.298L38.0683 245.977L35.3214 245.505Z" fill="#000091"/>
<path d="M34.8554 243.531L35.2918 247.543C35.2918 247.543 38.0092 248.842 39.8867 247.427L38.7986 242.951L34.8554 243.531Z" fill="url(#paint10_linear_636_47028)"/>
<path d="M35.9294 168.195C35.7141 169.24 34.3318 220.407 39.5749 243.394C39.6608 243.768 39.4679 244.152 39.1103 244.295C38.2692 244.629 36.6223 245.11 34.653 245.157C34.0436 245.171 33.5002 244.77 33.3343 244.183C31.8238 238.847 24.5962 212.115 23.8633 186.64C23.0434 158.172 23.8727 185.672 23.8727 185.672L24.6797 168.088L35.9294 168.197V168.195Z" fill="#000091"/>
<path d="M17.3814 247.081C17.3814 247.081 16.425 248.764 15.471 253.249C15.2992 254.06 15.858 254.841 16.6803 254.931C18.1355 255.088 20.3753 255.293 22.1704 255.298C22.9986 255.301 23.6515 254.584 23.5586 253.761C23.375 252.118 22.781 249.421 20.887 247.305L17.3802 247.081H17.3814Z" fill="#000091"/>
<path d="M16.6052 241.918L17.6569 247.99C17.6569 247.99 18.7463 248.817 20.9214 248.245L20.4544 241.72L16.6064 241.92L16.6052 241.918Z" fill="url(#paint11_linear_636_47028)"/>
<path d="M14.297 169.56C9.57267 196.518 14.6299 236.304 16.3898 244.098C16.498 244.575 16.878 244.944 17.3591 245.029C18.1767 245.173 19.5225 245.296 20.8541 244.923C21.3129 244.794 21.6388 244.384 21.6611 243.907C21.967 237.623 21.8917 199.02 26.1996 183.805C26.4184 183.035 26.896 182.364 27.5524 181.906L35.6859 176.231L36.394 166.938L14.297 169.56Z" fill="#000091"/>
<path d="M43.2476 118.67C29.8628 118.32 15.0569 121.922 15.0569 121.922C10.8443 145.203 13.8806 172.133 13.8806 172.133C24.2186 174.953 35.9506 170.679 35.9506 170.679C37.7657 160.948 46.0639 133.593 46.0639 133.593C52.6127 132.843 58.0182 131.005 62.479 128.548C59.1322 124.586 57.5841 119.571 56.9195 116.609C52.1728 118.037 47.3755 118.778 43.2476 118.671V118.67Z" fill="#CE0500"/>
<path d="M82.9785 99.299C81.6786 97.6955 80.007 98.4318 80.007 98.4318C77.9577 106.748 67.5645 113.407 56.9206 116.608C57.5853 119.57 59.1334 124.586 62.4802 128.547C80.1858 118.797 82.9785 99.2978 82.9785 99.2978V99.299Z" fill="url(#paint12_linear_636_47028)"/>
<path d="M82.6551 99.7008C82.7881 100.14 81.1882 100.792 80.2671 98.9915C80.2424 98.1326 79.7565 94.4483 80.2753 93.7532C83.0398 90.0536 88.3746 85.4326 88.3746 85.4326C89.2605 86.3245 88.5158 87.1858 88.5158 87.1858L85.9242 89.8391C86.4524 90.8159 87.0994 91.6418 87.3947 92.82C87.6182 93.7119 87.4677 94.6616 87.0112 95.4675C86.5524 96.2757 85.9278 97.3267 85.3396 98.1479C84.2244 99.7032 82.6563 99.6996 82.6563 99.6996L82.6551 99.7008Z" fill="url(#paint13_linear_636_47028)"/>
<path d="M20.0684 134.953L15.057 121.921C15.057 121.921 2.47211 130.311 0.312286 141.08C2.67327 141.276 6.96706 141.933 11.155 144.102C12.1278 139.017 20.0684 134.953 20.0684 134.953Z" fill="#CE0500"/>
<path d="M30.8795 147.274C30.8795 147.274 16.7654 155.086 12.0928 148.255C11.1223 146.836 10.9012 145.434 11.1564 144.102C6.96855 141.934 2.67476 141.276 0.31377 141.08C-0.336765 144.326 -0.0426521 147.788 1.83249 151.303C9.98477 166.585 32.7041 150.758 32.7041 150.758L30.8795 147.274Z" fill="url(#paint14_linear_636_47028)"/>
<path d="M29.7925 107.655L25.4152 119.952C25.3423 120.156 25.4246 120.383 25.6129 120.489C26.7681 121.143 30.9336 123.041 36.005 119.888C36.5332 119.559 36.8955 119.019 36.9814 118.402L38.4624 107.737L29.7925 107.655Z" fill="url(#paint15_linear_636_47028)"/>
<path d="M39.1692 96.3193C39.1692 96.3193 43.763 105.182 43.1289 108.739C42.496 112.295 36.7011 111.984 31.6663 109.043L28.2195 99.4876L39.168 96.3193H39.1692Z" fill="url(#paint16_linear_636_47028)"/>
<path d="M31.9341 104.369C32.1412 104.279 32.2188 104.028 32.0977 103.839C31.7283 103.261 31.0366 102.086 30.8225 101.059C30.8225 101.059 29.9873 100.511 32.9741 99.8257C35.9621 99.14 40.4182 98.0725 41.3769 95.5405C42.311 93.071 39.977 86.817 36.1115 91.7455C35.9644 91.9329 35.6797 91.934 35.5362 91.7443C34.9186 90.9219 33.2882 89.2123 30.993 90.2174C28.8462 91.1576 28.5897 92.7246 28.6121 93.5164C28.6179 93.7497 28.4086 93.9276 28.1815 93.8828C27.1028 93.666 24.5101 93.4633 23.2737 96.1179C22.2549 98.3035 22.8914 99.5535 23.476 100.166C23.6654 100.365 23.5784 100.688 23.3148 100.766C22.602 100.977 21.6785 101.572 21.755 103.24C21.8597 105.546 24.4348 105.368 25.1688 105.27C25.2888 105.254 25.41 105.296 25.49 105.388C26.1111 106.09 28.9132 109.074 31.973 109.459C32.2377 109.492 32.4459 109.231 32.3612 108.978L31.0719 105.106C31.0119 104.926 31.1001 104.731 31.273 104.655L31.933 104.37L31.9341 104.369Z" fill="#000091"/>
<path d="M32.4628 104.922C32.4628 104.922 29.1549 102.602 28.8925 104.526C28.6314 106.451 31.8652 107.346 33.478 106.643L32.4628 104.922Z" fill="url(#paint17_linear_636_47028)"/>
<path d="M27.9935 159.62L35.6823 132.727C35.7694 132.422 36.0294 132.199 36.3446 132.163C37.7375 132 41.7748 131.543 46.4344 131.148C52.0481 130.672 58.5675 130.287 62.4637 130.616C63.0178 130.663 63.3519 131.25 63.106 131.748C60.8909 136.237 51.7775 154.497 47.2144 160.479C47.0626 160.677 46.8297 160.793 46.5803 160.791L28.7406 160.625C28.2218 160.62 27.85 160.122 27.9924 159.621L27.9935 159.62Z" fill="#000091"/>
<path d="M29.8522 153.123C29.8522 153.123 28.7817 148.712 29.2135 147.147C29.6452 145.583 30.4828 143.57 33.2731 144.018C36.0635 144.465 39.355 145.643 39.355 145.643C39.355 145.643 39.1891 147.681 37.0681 147.024L38.3833 148.043C38.3833 148.043 38.1951 149.675 36.4046 148.803L37.6281 150.154C37.6281 150.154 36.8587 151.495 35.5412 150.635C34.2236 149.775 33.5919 153.656 29.8546 153.125L29.8522 153.123Z" fill="url(#paint18_linear_636_47028)"/>
<path d="M310.302 123.945L304.963 140.902C304.963 140.902 298.768 145.475 290.868 141.11C289.655 140.444 288.4 139.57 287.126 138.428C277.539 129.858 283.899 117.39 283.899 117.39C283.899 117.39 276.582 114.433 279.833 108.211C280.058 107.786 280.681 107.853 280.815 108.319C281.289 110.035 282.444 113.033 284.864 114.099C284.989 114.149 285.106 114.208 285.213 114.258C285.321 113.933 285.321 113.549 285.063 113.142C284.306 111.993 285.671 110.418 285.671 110.418C285.671 110.418 285.762 111.809 286.811 112.676C287.717 113.434 288.149 115.1 287.533 116.474C286.22 121.571 284.257 128.309 291.899 133.239C292.68 133.74 293.495 134.047 294.326 134.18C301.627 135.404 310.301 123.944 310.301 123.944L310.302 123.945Z" fill="#FEBBBA"/>
<path d="M310.302 123.945L304.963 140.902C304.963 140.902 298.768 145.475 290.868 141.11L294.327 134.181C301.628 135.405 310.302 123.945 310.302 123.945Z" fill="#FF928E"/>
<path d="M311.902 103.149C311.902 103.149 308.879 92.6048 320.189 95.5046C320.189 95.5046 325.731 94.7307 325.889 99.9559C325.889 99.9559 328.283 103.571 328.384 108.026C328.384 108.026 339.274 110.846 340.992 115.215C342.75 119.688 341.774 126.793 337.303 128.019C337.303 128.019 340.858 129.913 339.059 133.957C337.261 138.002 328.57 140.678 323.593 135.59C323.593 135.59 309.055 137.167 309.586 126.92C309.586 126.92 302.948 122.402 310.226 114.095C317.505 105.788 311.901 103.149 311.901 103.149H311.902Z" fill="#E1473D"/>
<path d="M311.016 122.08C313.301 121.393 319.957 120.126 326.288 125.977C327.362 126.97 327.801 128.478 327.418 129.889C325.718 136.159 321.231 154.682 325.165 162.697C325.165 162.697 318.234 170.35 310.671 164.182C310.671 164.182 307.278 149.37 302.833 142.868C299.766 138.379 307.726 126.011 309.74 123.024C310.045 122.571 310.495 122.237 311.017 122.08H311.016Z" fill="#FF928E"/>
<path d="M317.328 109.624C317.328 109.624 320.708 119.201 320.963 123.426C320.963 123.426 317.227 125.127 313.706 122.255C313.706 122.255 313.337 112.689 312.804 110.976L317.328 109.623V109.624Z" fill="#FEBBBA"/>
<path d="M311.908 100.164C311.908 100.164 302.777 112.346 307.977 116.068C313.178 119.792 319.676 111.135 319.676 111.135C319.676 111.135 321.886 104.402 319.795 102.051C317.704 99.7003 311.908 100.164 311.908 100.164Z" fill="#FEBBBA"/>
<path d="M316.068 97.2995C316.068 97.2995 311.984 98.1671 311.372 99.9948C310.759 101.821 317.047 103.677 318.818 103.802L320.072 111.262C320.072 111.262 324.459 104.375 322.881 100.301C321.303 96.2274 316.068 97.2995 316.068 97.2995Z" fill="#E1473D"/>
<path d="M317.983 110.182C317.983 110.182 321.517 106.272 322.824 108.907C324.132 111.54 319.621 113.389 318.104 112.076L317.983 110.183V110.182Z" fill="#FEBBBA"/>
<path d="M301.842 195.28C301.868 195.953 300.689 201.286 300.048 204.13C299.789 205.275 299.97 206.472 300.551 207.491L322.766 244.94C323.035 245.393 323.23 245.884 323.349 246.396C323.756 248.154 324.601 252.461 324.16 256.38L323.01 258.771L327.981 257.64L329.062 244.272L327.655 243.413C326.44 242.67 325.492 241.561 324.951 240.242C322.942 235.355 317.954 222.913 316.667 216.851C315.205 209.96 307.566 204.364 307.566 204.364L308.908 201.185L301.84 195.28H301.842Z" fill="#FEBBBA"/>
<path d="M333.508 253.041C333.508 253.041 330.824 248.779 330.508 247.119C330.192 245.461 329.314 242.531 327.658 243.413C327.658 243.413 326.878 251.472 327.146 254.621C327.415 257.771 323.592 257.67 323.592 257.67C323.592 257.67 322.539 257.818 321.767 258.591C321.234 259.124 321.616 260.05 322.368 260.098C323.619 260.179 325.605 260.201 327.693 259.797C328.422 259.655 328.962 259.034 329.007 258.291L329.558 249.015L332.944 253.297L333.509 253.042L333.508 253.041Z" fill="#000091"/>
<path d="M315.114 201.245C315.114 201.245 315.898 234.743 316.004 239.501C316.109 244.258 315.254 254.801 310.491 257.953L312.563 259.49C312.563 259.49 315.152 257.286 317.683 253.043C320.524 248.277 321.383 247.406 321.383 247.406L320.441 245.472C320.028 244.625 319.906 243.667 320.097 242.743C321.125 237.756 324.557 221.164 325.494 217.591C326.599 213.373 326.678 207.74 322.832 203.026C318.986 198.311 315.113 201.246 315.113 201.246L315.114 201.245Z" fill="#FEBBBA"/>
<path d="M319.511 260.999C319.66 261 319.785 260.894 319.805 260.748C319.964 259.631 320.623 255.154 321.164 253.994C321.782 252.667 323.801 247.079 321.164 246.604C321.164 246.604 314.602 256.207 313.342 257.5C312.082 258.795 310.493 257.953 310.493 257.953C310.493 257.953 309.266 258.316 308.34 259.501C307.899 260.064 308.309 260.892 309.024 260.899L313.444 260.942C314.727 260.954 315.882 260.172 316.358 258.979C317.136 257.033 318.473 254.178 320.03 252.911L319.221 260.674C319.203 260.847 319.338 260.998 319.511 261V260.999Z" fill="#000091"/>
<path d="M309.625 160.57C309.625 160.57 310.621 163.75 309.091 168.986L299.599 202.183C299.45 202.705 299.731 203.25 300.241 203.434C303.08 204.455 312.414 207.339 325.154 206.459C325.795 206.415 326.333 205.96 326.472 205.331C327.311 201.547 330.176 188.633 330.765 185.981C333.012 175.871 335.522 164.968 324.484 158.376C319.397 160.558 314.653 161.845 309.625 160.569V160.57Z" fill="#4F52FF"/>
<path d="M340.309 147.736C340.309 147.736 340.382 147.741 340.382 147.732C339.187 146.792 332.836 146.758 332.836 146.758C332.836 146.758 328.224 140.07 326.661 138.41C326.61 138.359 326.559 138.308 326.517 138.265C326.483 138.231 326.449 138.197 326.398 138.153C325.826 137.623 325.219 137.092 324.562 136.546C323.837 135.938 323.256 135.16 322.906 134.279C320.464 128.12 322.393 124.092 326.834 126.676C326.834 126.676 336.22 134.484 339.864 145.552C339.907 145.689 339.941 145.817 339.985 145.945C340.129 146.458 340.275 146.945 340.403 147.399C340.412 147.433 340.375 147.482 340.383 147.516C340.409 147.592 340.285 147.659 340.31 147.736H340.309Z" fill="#FF928E"/>
<path d="M317.099 151.755C317.099 151.755 328.005 157.93 331.685 152.657C332.45 151.562 333.023 147.793 332.836 146.756C336.105 145.103 338.566 147.533 340.402 147.398C340.883 149.925 341.117 152.384 339.635 155.1C333.188 166.911 315.656 154.448 315.656 154.448L317.1 151.755H317.099Z" fill="#FEBBBA"/>
<path d="M318.409 159.566L312.456 138.746C312.388 138.51 312.187 138.337 311.943 138.309C310.864 138.182 307.74 137.829 304.131 137.523C299.785 137.154 294.737 136.856 291.721 137.11C291.293 137.147 291.034 137.601 291.225 137.986C292.94 141.462 299.995 155.599 303.527 160.231C303.644 160.384 303.825 160.474 304.018 160.472L317.83 160.343C318.232 160.339 318.52 159.953 318.409 159.566Z" fill="#000091"/>
<path d="M303.514 135.717L299.198 134.997C298.969 134.959 298.781 135.178 298.853 135.399L299.281 136.697C299.319 136.81 299.416 136.891 299.534 136.907L303.687 137.463C303.902 137.492 304.079 137.296 304.029 137.085L303.764 135.953C303.736 135.831 303.637 135.739 303.514 135.718V135.717Z" fill="#4F52FF"/>
<path d="M306.745 139.377L306.389 137.523C306.354 137.337 306.2 137.197 306.013 137.177L297.295 136.291C297.002 136.261 296.767 136.531 296.836 136.818L297.39 139.129C297.434 139.314 297.595 139.448 297.785 139.458L306.303 139.887C306.58 139.901 306.797 139.651 306.745 139.378V139.377Z" fill="#4F52FF"/>
<path d="M316.971 154.536C316.971 154.536 317.801 151.12 317.466 149.909C317.131 148.697 316.483 147.14 314.322 147.486C312.162 147.832 309.615 148.743 309.615 148.743C309.615 148.743 309.743 150.322 311.385 149.813L310.367 150.602C310.367 150.602 310.512 151.865 311.899 151.191L310.952 152.237C310.952 152.237 311.548 153.275 312.568 152.609C313.589 151.944 314.077 154.948 316.971 154.537V154.536Z" fill="#FEBBBA"/>
<defs>
<linearGradient id="paint0_linear_636_47028" x1="102.589" y1="-10.122" x2="99.9067" y2="22.7689" gradientUnits="userSpaceOnUse">
<stop stop-color="#FF928E"/>
<stop offset="1" stop-color="#FE7062"/>
</linearGradient>
<linearGradient id="paint1_linear_636_47028" x1="274.673" y1="3.90677" x2="271.991" y2="36.7965" gradientUnits="userSpaceOnUse">
<stop stop-color="#FF928E"/>
<stop offset="1" stop-color="#FE7062"/>
</linearGradient>
<linearGradient id="paint2_linear_636_47028" x1="258.053" y1="109.522" x2="458.855" y2="-86.3833" gradientUnits="userSpaceOnUse">
<stop stop-color="#FF928E"/>
<stop offset="1" stop-color="#FE7062"/>
</linearGradient>
<linearGradient id="paint3_linear_636_47028" x1="217.066" y1="67.511" x2="417.866" y2="-128.394" gradientUnits="userSpaceOnUse">
<stop stop-color="#FF928E"/>
<stop offset="1" stop-color="#FE7062"/>
</linearGradient>
<linearGradient id="paint4_linear_636_47028" x1="205.312" y1="-27.2497" x2="169.327" y2="95.0095" gradientUnits="userSpaceOnUse">
<stop stop-color="#E1473D"/>
<stop offset="1" stop-color="#E9605A"/>
</linearGradient>
<linearGradient id="paint5_linear_636_47028" x1="175.843" y1="92.1892" x2="170.739" y2="183.937" gradientUnits="userSpaceOnUse">
<stop stop-color="#E1473D"/>
<stop offset="1" stop-color="#E9605A"/>
</linearGradient>
<linearGradient id="paint6_linear_636_47028" x1="175.275" y1="194.248" x2="90.5515" y2="282.865" gradientUnits="userSpaceOnUse">
<stop stop-color="#FF928E"/>
<stop offset="1" stop-color="#FE7062"/>
</linearGradient>
<linearGradient id="paint7_linear_636_47028" x1="353.175" y1="94.3253" x2="285.192" y2="133.44" gradientUnits="userSpaceOnUse">
<stop stop-color="#FF928E"/>
<stop offset="1" stop-color="#FE7062"/>
</linearGradient>
<linearGradient id="paint8_linear_636_47028" x1="182.865" y1="164.472" x2="179.973" y2="185.845" gradientUnits="userSpaceOnUse">
<stop stop-color="#E1473D"/>
<stop offset="1" stop-color="#E9605A"/>
</linearGradient>
<linearGradient id="paint9_linear_636_47028" x1="178.798" y1="189.978" x2="170.712" y2="278.209" gradientUnits="userSpaceOnUse">
<stop stop-color="#FF928E"/>
<stop offset="1" stop-color="#FE7062"/>
</linearGradient>
<linearGradient id="paint10_linear_636_47028" x1="34.8047" y1="245.394" x2="39.8723" y2="245.441" gradientUnits="userSpaceOnUse">
<stop stop-color="#FEBBBA"/>
<stop offset="1" stop-color="#FF928E"/>
</linearGradient>
<linearGradient id="paint11_linear_636_47028" x1="16.5438" y1="244.961" x2="20.9197" y2="245.002" gradientUnits="userSpaceOnUse">
<stop stop-color="#FEBBBA"/>
<stop offset="1" stop-color="#FF928E"/>
</linearGradient>
<linearGradient id="paint12_linear_636_47028" x1="56.9093" y1="113.177" x2="82.8002" y2="113.421" gradientUnits="userSpaceOnUse">
<stop stop-color="#FEBBBA"/>
<stop offset="1" stop-color="#FF928E"/>
</linearGradient>
<linearGradient id="paint13_linear_636_47028" x1="77.1244" y1="109.108" x2="59.3338" y2="148.512" gradientUnits="userSpaceOnUse">
<stop stop-color="#FEBBBA"/>
<stop offset="1" stop-color="#FF928E"/>
</linearGradient>
<linearGradient id="paint14_linear_636_47028" x1="-0.0888286" y1="149.369" x2="32.6741" y2="149.677" gradientUnits="userSpaceOnUse">
<stop stop-color="#FEBBBA"/>
<stop offset="1" stop-color="#FF928E"/>
</linearGradient>
<linearGradient id="paint15_linear_636_47028" x1="25.4004" y1="114.527" x2="38.3541" y2="114.649" gradientUnits="userSpaceOnUse">
<stop stop-color="#FEBBBA"/>
<stop offset="1" stop-color="#FF928E"/>
</linearGradient>
<linearGradient id="paint16_linear_636_47028" x1="41.5641" y1="106.508" x2="27.3906" y2="97.6912" gradientUnits="userSpaceOnUse">
<stop stop-color="#FEBBBA"/>
<stop offset="1" stop-color="#FF928E"/>
</linearGradient>
<linearGradient id="paint17_linear_636_47028" x1="37.7922" y1="109.718" x2="25.0403" y2="101.785" gradientUnits="userSpaceOnUse">
<stop stop-color="#FEBBBA"/>
<stop offset="1" stop-color="#FF928E"/>
</linearGradient>
<linearGradient id="paint18_linear_636_47028" x1="29.1099" y1="148.564" x2="39.3538" y2="148.564" gradientUnits="userSpaceOnUse">
<stop stop-color="#FEBBBA"/>
<stop offset="1" stop-color="#FF928E"/>
</linearGradient>
</defs>
</svg>
