<svg width="60" height="54" viewBox="0 0 60 54" fill="none" xmlns="http://www.w3.org/2000/svg">
<path d="M5 6C4.4486 6 4 5.5514 4 5C4 4.44855 4.4486 4 5 4C5.5514 4 6 4.44855 6 5C6 5.5514 5.5514 6 5 6Z" fill="#E1000F"/>
<path d="M9 6C8.4486 6 8 5.5514 8 5C8 4.44855 8.4486 4 9 4C9.5514 4 10 4.44855 10 5C10 5.5514 9.5514 6 9 6Z" fill="#E1000F"/>
<path d="M12 5C12 5.5514 12.4486 6 13 6C13.5514 6 14 5.5514 14 5C14 4.44855 13.5514 4 13 4C12.4486 4 12 4.44855 12 5Z" fill="#E1000F"/>
<path d="M51 4C51.5523 4 52 4.44772 52 5C52 5.51284 51.614 5.93551 51.1166 5.99327L51 6H21C20.4477 6 20 5.55228 20 5C20 4.48716 20.386 4.06449 20.8834 4.00673L21 4H51Z" fill="#E1000F"/>
<path d="M55.9933 0.883379C55.9355 0.38604 55.5128 0 55 0H1L0.883379 0.00672773C0.38604 0.0644928 0 0.487164 0 1V47L0.00672773 47.1166C0.0644928 47.614 0.487164 48 1 48H25L25.1166 47.9933C25.614 47.9355 26 47.5128 26 47L25.9933 46.8834C25.9355 46.386 25.5128 46 25 46H2V10H39L39.1166 9.99327C39.614 9.93551 40 9.51284 40 9C40 8.44771 39.5523 8 39 8H2V2H54V17L54.0067 17.1166C54.0645 17.614 54.4872 18 55 18C55.5523 18 56 17.5523 56 17V1L55.9933 0.883379Z" fill="#000091"/>
<path d="M60 35C60 25.6112 52.3888 18 43 18C33.6112 18 26 25.6112 26 35C26 43.6209 32.417 50.743 40.7351 51.8504L40.2929 52.2929L40.2097 52.3871C39.9047 52.7794 39.9324 53.3466 40.2929 53.7071C40.6834 54.0976 41.3166 54.0976 41.7071 53.7071L43.7071 51.7071C43.7365 51.6777 43.7641 51.6465 43.7897 51.6136C43.8454 51.5419 43.8907 51.4636 43.9242 51.3826C43.9668 51.2797 43.9928 51.1682 43.9987 51.0515C43.9996 51.0344 44 51.0173 44 51C44 50.8652 43.9733 50.7367 43.925 50.6194C43.8762 50.5006 43.8036 50.3894 43.7071 50.2929L41.7071 48.2929L41.6129 48.2097C41.2206 47.9047 40.6534 47.9324 40.2929 48.2929L40.2097 48.3871C39.9047 48.7794 39.9324 49.3466 40.2929 49.7071L40.3529 49.7672C33.3311 48.5169 28 42.381 28 35C28 26.7157 34.7157 20 43 20C51.2843 20 58 26.7157 58 35C58 38.499 56.7995 41.8112 54.6355 44.4673C54.2867 44.8955 54.351 45.5254 54.7792 45.8742C55.2074 46.223 55.8372 46.1587 56.1861 45.7305C58.6381 42.7208 60 38.9635 60 35Z" fill="#000091"/>
<path d="M53.6262 48.2704C54.0571 47.9249 54.1264 47.2956 53.7809 46.8647C53.4354 46.4338 52.8061 46.3645 52.3752 46.71C51.7853 47.1829 51.1607 47.6108 50.5067 47.9896C50.0288 48.2664 49.8658 48.8782 50.1426 49.3561C50.4194 49.834 51.0312 49.997 51.5091 49.7202C52.2503 49.2909 52.958 48.8061 53.6262 48.2704Z" fill="#000091"/>
<path d="M27 16C27.5523 16 28 16.4477 28 17C28 17.5128 27.614 17.9355 27.1166 17.9933L27 18H9C8.44771 18 8 17.5523 8 17C8 16.4872 8.38604 16.0645 8.88338 16.0067L9 16H27Z" fill="#000091"/>
<path d="M24 23C24 22.4477 23.5523 22 23 22H9L8.88338 22.0067C8.38604 22.0645 8 22.4872 8 23C8 23.5523 8.44771 24 9 24H23L23.1166 23.9933C23.614 23.9355 24 23.5128 24 23Z" fill="#000091"/>
<path d="M21 28C21.5523 28 22 28.4477 22 29C22 29.5128 21.614 29.9355 21.1166 29.9933L21 30H9C8.44771 30 8 29.5523 8 29C8 28.4872 8.38604 28.0645 8.88338 28.0067L9 28H21Z" fill="#000091"/>
<path d="M50.5522 44.3261C45.4018 48.4969 37.8454 47.7027 33.6746 42.5522C29.5039 37.4018 30.2981 29.8454 35.4486 25.6746C40.599 21.5039 48.1554 22.2981 52.3261 27.4486C52.6737 27.8778 52.6075 28.5075 52.1783 28.855C51.7491 29.2026 51.1194 29.1364 50.7719 28.7072C47.2962 24.4151 40.9993 23.7533 36.7072 27.2289C32.4151 30.7046 31.7533 37.0015 35.2289 41.2936C38.7046 45.5857 45.0015 46.2475 49.2936 42.7719C52.0211 40.5632 53.3575 37.137 52.9195 33.7189C52.8493 33.1711 53.2365 32.6701 53.7843 32.5999C54.3321 32.5297 54.8331 32.9169 54.9033 33.4647C55.4285 37.5637 53.8242 41.6765 50.5522 44.3261Z" fill="#E1000F"/>
<path d="M39.0416 34.8567L41.3714 37.6114L47.4393 30.5091C47.8423 30.0373 48.5453 29.9973 48.9965 30.4227C49.4037 30.8066 49.4653 31.4406 49.1326 31.9188L49.0788 31.9875L42.5105 39.6769C41.9724 40.3068 41.0256 40.3812 40.3957 39.8432C40.3342 39.7906 40.2771 39.7332 40.2248 39.6715L37.3953 36.3271C37.0068 35.8679 37.0457 35.1728 37.4848 34.7627C37.9068 34.3686 38.5518 34.3761 38.9825 34.7927L39.0416 34.8567Z" fill="#E1000F"/>
</svg>
