<svg width="52" height="98" viewBox="0 0 52 98" fill="none" xmlns="http://www.w3.org/2000/svg">
<path d="M20.2175 91.6711C20.2175 91.6711 19.8601 93.5868 19.6756 95.4842C19.6033 96.2257 20.1702 96.8755 20.9154 96.914C23.447 97.0435 28.8621 97.2999 30.8066 97.2318C31.0991 97.2216 31.293 96.9248 31.187 96.6522C31.0984 96.4241 30.9255 96.2385 30.7039 96.1339L21.7951 91.9417L20.2175 91.6711Z" fill="#000091"/>
<path d="M20.0083 90.5409L20.2589 92.8384C20.2589 92.8384 21.8196 93.582 22.8979 92.7716L22.273 90.2083L20.0083 90.5409Z" fill="url(#paint0_linear_698_71294)"/>
<path d="M20.6177 47.3966C20.4941 47.9951 19.7002 77.2975 22.7115 90.4619C22.7608 90.6765 22.65 90.8964 22.4446 90.9781C21.9616 91.1697 21.0157 91.445 19.8847 91.472C19.5347 91.4801 19.2226 91.25 19.1273 90.914C18.2598 87.858 14.1087 72.5493 13.6878 57.9598C13.2169 41.6565 13.6932 57.4052 13.6932 57.4052L14.1567 47.3352L20.6177 47.398V47.3966Z" fill="#000091"/>
<path d="M9.97651 92.574C9.97651 92.574 9.42722 93.5375 8.87929 96.1063C8.78065 96.5705 9.10157 97.0179 9.57384 97.0692C10.4096 97.1596 11.696 97.277 12.727 97.2797C13.2026 97.281 13.5776 96.8708 13.5242 96.3991C13.4188 95.4585 13.0776 93.914 11.9899 92.7022L9.97583 92.574H9.97651Z" fill="#000091"/>
<path d="M9.47424 89.6173L10.0783 93.0943C10.0783 93.0943 10.7039 93.5679 11.9531 93.2407L11.6849 89.5039L9.47491 89.6179L9.47424 89.6173Z" fill="url(#paint1_linear_698_71294)"/>
<path d="M8.19329 48.1781C5.47997 63.617 8.38449 86.402 9.39523 90.8655C9.45739 91.1388 9.67562 91.35 9.95195 91.3985C10.4215 91.4809 11.1944 91.5517 11.9592 91.3378C12.2227 91.2643 12.4099 91.0295 12.4227 90.7562C12.5984 87.1571 12.5551 65.0495 15.0293 56.3365C15.1549 55.8952 15.4293 55.5113 15.8063 55.2488L20.4775 51.9985L20.8843 46.6768L8.19329 48.1781Z" fill="#000091"/>
<path d="M24.8118 19.0341C17.1245 18.8337 8.62103 20.8965 8.62103 20.8965C6.20161 34.2295 7.94541 49.6516 7.94541 49.6516C13.8828 51.267 20.6209 48.819 20.6209 48.819C21.6634 43.2462 26.4292 27.5805 26.4292 27.5805C30.1904 27.1507 33.295 26.0981 35.8569 24.6912C33.9348 22.4221 33.0456 19.5503 32.6639 17.854C29.9378 18.6718 27.1826 19.0962 24.8118 19.0348V19.0341Z" fill="#CE0500"/>
<path d="M47.5898 7.94068C46.8433 7.02235 45.8832 7.44407 45.8832 7.44407C44.7063 12.2065 38.7371 16.0201 32.624 17.8534C33.0058 19.5498 33.8949 22.4222 35.817 24.6907C45.9859 19.1071 47.5898 7.94001 47.5898 7.94001V7.94068Z" fill="url(#paint2_linear_698_71294)"/>
<path d="M47.4708 8.17074C47.5471 8.42242 46.6283 8.79556 46.0992 7.76454C46.085 7.27265 45.806 5.1627 46.104 4.7646C47.6917 2.64588 50.7557 -0.000488281 50.7557 -0.000488281C51.2644 0.510298 50.8367 1.00354 50.8367 1.00354L49.3483 2.52308C49.6517 3.08245 50.0233 3.55545 50.1929 4.2302C50.3212 4.74098 50.2347 5.28483 49.9726 5.74636C49.7091 6.20924 49.3503 6.81111 49.0125 7.28142C48.372 8.17209 47.4714 8.17006 47.4714 8.17006L47.4708 8.17074Z" fill="url(#paint3_linear_698_71294)"/>
<path d="M11.5156 28.3592L8.63745 20.8958C8.63745 20.8958 1.40958 25.7007 0.169126 31.8679C1.52511 31.9806 3.99116 32.3564 6.39639 33.5986C6.95514 30.6864 11.5156 28.3592 11.5156 28.3592Z" fill="#CE0500"/>
<path d="M17.7353 35.4153C17.7353 35.4153 9.62913 39.8896 6.94554 35.9774C6.38815 35.165 6.26113 34.362 6.40774 33.5989C4.00251 32.3574 1.53646 31.9808 0.180475 31.8682C-0.193146 33.7271 -0.024229 35.7102 1.05272 37.723C5.73482 46.4745 18.7832 37.4106 18.7832 37.4106L17.7353 35.4153Z" fill="url(#paint4_linear_698_71294)"/>
<path d="M17.0436 12.7258L14.5296 19.7682C14.4877 19.8849 14.535 20.0152 14.6431 20.0759C15.3065 20.4504 17.6989 21.5374 20.6116 19.7318C20.9149 19.5435 21.123 19.2338 21.1723 18.8809L22.0229 12.7731L17.0436 12.7258Z" fill="url(#paint5_linear_698_71294)"/>
<path d="M22.4281 6.23438C22.4281 6.23438 25.0665 11.3098 24.7023 13.3469C24.3388 15.3833 21.0107 15.2052 18.119 13.521L16.1394 8.04878L22.4275 6.23438H22.4281Z" fill="url(#paint6_linear_698_71294)"/>
<path d="M18.3195 10.8442C18.4384 10.7929 18.483 10.6492 18.4134 10.5406C18.2013 10.2099 17.804 9.53653 17.681 8.94882C17.681 8.94882 17.2013 8.63507 18.9168 8.24236C20.6328 7.84966 23.1921 7.23833 23.7428 5.78829C24.2792 4.37401 22.9388 0.79244 20.7186 3.61492C20.6342 3.72221 20.4707 3.72288 20.3883 3.61425C20.0336 3.14327 19.0971 2.16421 17.779 2.73977C16.546 3.27822 16.3987 4.17564 16.4115 4.62907C16.4149 4.76267 16.2946 4.86456 16.1642 4.83892C15.5447 4.71477 14.0556 4.59871 13.3455 6.11892C12.7604 7.37058 13.126 8.08649 13.4617 8.43736C13.5705 8.55139 13.5205 8.73628 13.3692 8.78081C12.9597 8.90159 12.4294 9.24234 12.4733 10.1978C12.5334 11.5183 14.0124 11.4164 14.434 11.3604C14.5029 11.3509 14.5725 11.3752 14.6184 11.4279C14.9751 11.83 16.5845 13.5385 18.3418 13.7591C18.4938 13.778 18.6134 13.6289 18.5648 13.4838L17.8243 11.2666C17.7898 11.1634 17.8405 11.0513 17.9398 11.0082L18.3188 10.8449L18.3195 10.8442Z" fill="#000091"/>
<path d="M18.6376 11.1607C18.6376 11.1607 16.7378 9.8321 16.5871 10.934C16.4371 12.0365 18.2944 12.5493 19.2207 12.1465L18.6376 11.1607Z" fill="url(#paint7_linear_698_71294)"/>
<path d="M15.9943 42.4859L20.4102 27.0848C20.4602 26.91 20.6095 26.7825 20.7906 26.7616C21.5905 26.6684 23.9093 26.4066 26.5854 26.1806C29.8095 25.908 33.5539 25.6874 35.7915 25.8756C36.1098 25.9026 36.3016 26.2386 36.1604 26.524C34.8882 29.0948 29.6541 39.5521 27.0334 42.9778C26.9462 43.0912 26.8125 43.158 26.6692 43.1566L16.4233 43.0615C16.1254 43.0588 15.9119 42.7734 15.9936 42.4866L15.9943 42.4859Z" fill="#000091"/>
<path d="M17.0906 38.7652C17.0906 38.7652 16.4758 36.239 16.7238 35.3429C16.9717 34.4468 17.4528 33.2944 19.0554 33.5508C20.6579 33.8065 22.5483 34.4813 22.5483 34.4813C22.5483 34.4813 22.4531 35.6486 21.2349 35.2721L21.9903 35.8557C21.9903 35.8557 21.8822 36.7902 20.8539 36.2909L21.5565 37.0649C21.5565 37.0649 21.1147 37.8327 20.358 37.3402C19.6013 36.8476 19.2384 39.0702 17.092 38.7659L17.0906 38.7652Z" fill="url(#paint8_linear_698_71294)"/>
<defs>
<linearGradient id="paint0_linear_698_71294" x1="19.9792" y1="91.6075" x2="22.8897" y2="91.6349" gradientUnits="userSpaceOnUse">
<stop stop-color="#FEBBBA"/>
<stop offset="1" stop-color="#FF928E"/>
</linearGradient>
<linearGradient id="paint1_linear_698_71294" x1="9.43893" y1="91.3597" x2="11.9522" y2="91.3834" gradientUnits="userSpaceOnUse">
<stop stop-color="#FEBBBA"/>
<stop offset="1" stop-color="#FF928E"/>
</linearGradient>
<linearGradient id="paint2_linear_698_71294" x1="32.6175" y1="15.8884" x2="47.4874" y2="16.0288" gradientUnits="userSpaceOnUse">
<stop stop-color="#FEBBBA"/>
<stop offset="1" stop-color="#FF928E"/>
</linearGradient>
<linearGradient id="paint3_linear_698_71294" x1="44.2943" y1="13.5582" x2="34.1251" y2="36.1461" gradientUnits="userSpaceOnUse">
<stop stop-color="#FEBBBA"/>
<stop offset="1" stop-color="#FF928E"/>
</linearGradient>
<linearGradient id="paint4_linear_698_71294" x1="-0.050749" y1="36.6154" x2="18.766" y2="36.7929" gradientUnits="userSpaceOnUse">
<stop stop-color="#FEBBBA"/>
<stop offset="1" stop-color="#FF928E"/>
</linearGradient>
<linearGradient id="paint5_linear_698_71294" x1="14.5211" y1="16.6612" x2="21.9607" y2="16.7315" gradientUnits="userSpaceOnUse">
<stop stop-color="#FEBBBA"/>
<stop offset="1" stop-color="#FF928E"/>
</linearGradient>
<linearGradient id="paint6_linear_698_71294" x1="23.8036" y1="12.0692" x2="15.6764" y2="6.99917" gradientUnits="userSpaceOnUse">
<stop stop-color="#FEBBBA"/>
<stop offset="1" stop-color="#FF928E"/>
</linearGradient>
<linearGradient id="paint7_linear_698_71294" x1="21.6985" y1="13.9074" x2="14.3864" y2="9.34555" gradientUnits="userSpaceOnUse">
<stop stop-color="#FEBBBA"/>
<stop offset="1" stop-color="#FF928E"/>
</linearGradient>
<linearGradient id="paint8_linear_698_71294" x1="16.6643" y1="36.154" x2="22.5477" y2="36.154" gradientUnits="userSpaceOnUse">
<stop stop-color="#FEBBBA"/>
<stop offset="1" stop-color="#FF928E"/>
</linearGradient>
</defs>
</svg>
