<svg width="313" height="256" viewBox="0 0 313 256" fill="none" xmlns="http://www.w3.org/2000/svg">
<ellipse cx="130.96" cy="233.803" rx="126.52" ry="22.1965" fill="#D9D9D9"/>
<path d="M21.7468 235.991H71.1672L71.1672 128.649H21.7468L21.7468 235.991Z" fill="url(#paint0_linear_271_45181)"/>
<g opacity="0.89">
<path d="M32.317 209.221H75.2549C75.3246 209.221 75.3811 209.165 75.3811 209.095V164.325C75.3811 164.255 75.3246 164.199 75.2549 164.199H32.317C32.2473 164.199 32.1908 164.255 32.1908 164.325L32.1908 209.095C32.1908 209.165 32.2473 209.221 32.317 209.221Z" fill="white"/>
<path d="M52.04 166.633H35.4102C35.3716 166.633 35.3403 166.664 35.3403 166.703V206.718C35.3403 206.757 35.3716 206.788 35.4102 206.788H52.04C52.0786 206.788 52.1099 206.757 52.1099 206.718V166.703C52.1099 166.664 52.0786 166.633 52.04 166.633Z" fill="#7D97F4"/>
<path d="M72.163 166.633H55.5333C55.4947 166.633 55.4634 166.664 55.4634 166.703V206.718C55.4634 206.757 55.4947 206.788 55.5333 206.788H72.163C72.2016 206.788 72.2329 206.757 72.2329 206.718V166.703C72.2329 166.664 72.2016 166.633 72.163 166.633Z" fill="#7D97F4"/>
</g>
<path d="M91.3332 77.4561L19.7349 79.9873C19.3381 80.0008 18.8714 80.4344 18.6933 80.9548L0.071742 135.239C-0.109739 135.768 0.0649794 136.192 0.461759 136.189L71.9868 135.504C72.4107 135.499 72.901 135.053 73.0825 134.508L91.7762 78.4033C91.9554 77.866 91.757 77.4426 91.3332 77.4573V77.4561Z" fill="#6A6AF4"/>
<path d="M40.2278 83.0254L20.745 83.6813C20.3471 83.6948 19.8805 84.1284 19.7013 84.65L15.4235 97.1319C15.2442 97.6546 15.4212 98.0701 15.8191 98.0599L35.2962 97.5327C35.7009 97.5214 36.1755 97.0845 36.3547 96.5561L40.6381 83.9545C40.8173 83.4284 40.6336 83.0129 40.2278 83.0265V83.0254Z" fill="#8C8CF9"/>
<path d="M63.6524 82.2373L43.7537 82.9068C43.3479 82.9203 42.8733 83.3584 42.6941 83.8856L38.4107 96.4985C38.2315 97.0269 38.4152 97.4469 38.821 97.4356L58.7152 96.8971C59.1289 96.8858 59.6102 96.4444 59.7894 95.9103L64.0774 83.1755C64.2566 82.6437 64.0661 82.2238 63.6524 82.2373Z" fill="#8C8CF9"/>
<path d="M87.583 81.4324L67.2548 82.1165C66.84 82.1301 66.3587 82.5738 66.1794 83.1055L61.8904 95.8528C61.7112 96.3868 61.9017 96.8113 62.3165 96.8L82.6413 96.249C83.064 96.2377 83.5532 95.7907 83.7324 95.251L88.0248 82.3796C88.2041 81.8422 88.0068 81.4177 87.5841 81.4324H87.583Z" fill="#8C8CF9"/>
<path d="M34.384 100.21L14.908 100.713C14.5101 100.723 14.0423 101.157 13.863 101.679L9.56498 114.22C9.38462 114.746 9.56047 115.166 9.95838 115.158L29.4276 114.783C29.8323 114.776 30.3068 114.339 30.4872 113.808L34.7909 101.148C34.9701 100.619 34.7875 100.199 34.3828 100.21H34.384Z" fill="#8C8CF9"/>
<path d="M57.8021 99.6032L37.909 100.118C37.5032 100.128 37.0276 100.566 36.8483 101.096L32.5446 113.769C32.3643 114.299 32.5469 114.724 32.9527 114.716L52.8401 114.333C53.2538 114.325 53.7351 113.884 53.9166 113.347L58.2259 100.552C58.4063 100.018 58.2158 99.5931 57.8021 99.6032Z" fill="#8C8CF9"/>
<path d="M81.7269 98.9845L61.4033 99.5106C60.9885 99.5208 60.506 99.9633 60.3268 100.498L56.0175 113.306C55.8371 113.842 56.0265 114.271 56.4413 114.263L76.7604 113.871C77.1831 113.863 77.6724 113.417 77.8527 112.874L82.1666 99.9419C82.3469 99.4022 82.1496 98.9732 81.7269 98.9834V98.9845Z" fill="#8C8CF9"/>
<path d="M28.5147 117.475L9.04662 117.826C8.64871 117.833 8.18092 118.265 8.00056 118.791L3.68334 131.39C3.50186 131.918 3.6777 132.342 4.07561 132.338L23.5381 132.117C23.9427 132.112 24.4184 131.676 24.5988 131.142L28.9228 118.422C29.1031 117.89 28.9216 117.466 28.517 117.474L28.5147 117.475Z" fill="#8C8CF9"/>
<path d="M51.9248 117.053L32.0385 117.412C31.6327 117.418 31.157 117.857 30.9766 118.387L26.6526 131.12C26.4712 131.654 26.6527 132.083 27.0596 132.078L46.9402 131.852C47.3539 131.848 47.8364 131.407 48.0179 130.868L52.3475 118.012C52.5278 117.475 52.3396 117.046 51.9259 117.054L51.9248 117.053Z" fill="#8C8CF9"/>
<path d="M75.8429 116.62L55.5249 116.987C55.1101 116.995 54.6276 117.437 54.4461 117.974L49.7874 131.819L70.8516 131.579C71.2743 131.575 71.7646 131.129 71.9461 130.585L76.2803 117.589C76.4617 117.046 76.2656 116.612 75.8429 116.62Z" fill="#8C8CF9"/>
<path d="M194.826 133.425H244.246V234.745C244.246 235.433 243.688 235.992 243.002 235.992H194.826V133.425Z" fill="url(#paint1_linear_271_45181)"/>
<g opacity="0.89">
<path d="M233.678 164.653H197.716C197.646 164.653 197.59 164.709 197.59 164.779V209.264C197.59 209.334 197.646 209.391 197.716 209.391H233.678C233.747 209.391 233.804 209.334 233.804 209.264V164.779C233.804 164.709 233.747 164.653 233.678 164.653Z" fill="white"/>
<path d="M214.221 167.071H200.3C200.261 167.071 200.23 167.102 200.23 167.141V206.902C200.23 206.941 200.261 206.972 200.3 206.972H214.221C214.26 206.972 214.291 206.941 214.291 206.902V167.141C214.291 167.102 214.26 167.071 214.221 167.071Z" fill="#7D97F4"/>
<path d="M231.093 167.071H217.173C217.135 167.071 217.103 167.102 217.103 167.141V206.902C217.103 206.941 217.135 206.972 217.173 206.972H231.093C231.132 206.972 231.163 206.941 231.163 206.902V167.141C231.163 167.102 231.132 167.071 231.093 167.071Z" fill="#7D97F4"/>
</g>
<path d="M173.389 78.2995L245.868 80.8453C246.27 80.86 246.741 81.2946 246.923 81.8185L265.773 136.423C265.957 136.953 265.78 137.381 265.378 137.378L192.975 136.688C192.547 136.683 192.05 136.235 191.866 135.686L172.942 79.2512C172.761 78.7104 172.962 78.2848 173.391 78.2995H173.389Z" fill="#6A6AF4"/>
<path d="M225.122 83.9014L244.844 84.5608C245.246 84.5743 245.72 85.0101 245.9 85.5351L250.231 98.0904C250.412 98.6165 250.233 99.0342 249.831 99.0241L230.115 98.4935C229.704 98.4822 229.225 98.043 229.043 97.5112L224.706 84.8351C224.525 84.3056 224.711 83.8879 225.121 83.9014H225.122Z" fill="#8C8CF9"/>
<path d="M201.409 83.1089L221.552 83.7817C221.964 83.7953 222.444 84.2356 222.624 84.7662L226.961 97.4536C227.142 97.9854 226.956 98.4076 226.546 98.3963L206.407 97.8544C205.988 97.8431 205.501 97.3983 205.319 96.8621L200.978 84.0516C200.797 83.5164 200.99 83.0942 201.409 83.1089Z" fill="#7D97F4"/>
<path d="M177.184 82.2995L197.762 82.987C198.183 83.0006 198.67 83.4465 198.851 83.9817L203.193 96.8034C203.375 97.3408 203.182 97.7676 202.763 97.7563L182.189 97.202C181.76 97.1907 181.266 96.7413 181.084 96.1983L176.739 83.2512C176.557 82.7104 176.757 82.2837 177.185 82.2984L177.184 82.2995Z" fill="#7D97F4"/>
<path d="M231.037 101.187L250.752 101.694C251.154 101.704 251.627 102.14 251.809 102.666L256.16 115.28C256.343 115.809 256.165 116.231 255.762 116.224L236.053 115.847C235.642 115.839 235.162 115.4 234.98 114.866L230.623 102.131C230.442 101.599 230.626 101.177 231.036 101.187H231.037Z" fill="#8C8CF9"/>
<path d="M207.33 100.578L227.468 101.096C227.879 101.106 228.36 101.546 228.542 102.079L232.899 114.826C233.081 115.36 232.897 115.787 232.485 115.779L212.353 115.394C211.935 115.386 211.447 114.943 211.264 114.403L206.903 101.533C206.72 100.995 206.913 100.569 207.331 100.579L207.33 100.578Z" fill="#8C8CF9"/>
<path d="M183.112 99.9544L203.685 100.484C204.105 100.495 204.593 100.94 204.775 101.477L209.137 114.36C209.32 114.9 209.128 115.331 208.708 115.323L188.139 114.929C187.711 114.921 187.216 114.472 187.034 113.927L182.667 100.917C182.484 100.374 182.684 99.9431 183.112 99.9533V99.9544Z" fill="#8C8CF9"/>
<path d="M236.978 118.554L256.686 118.908C257.089 118.914 257.563 119.35 257.746 119.879L262.117 132.551C262.301 133.082 262.123 133.51 261.72 133.505L242.019 133.283C241.61 133.278 241.129 132.839 240.945 132.303L236.568 119.508C236.385 118.974 236.569 118.546 236.979 118.554H236.978Z" fill="#8C8CF9"/>
<path d="M213.281 118.129L233.412 118.49C233.823 118.498 234.304 118.937 234.487 119.472L238.864 132.279C239.048 132.816 238.864 133.248 238.453 133.243L218.327 133.016C217.909 133.012 217.42 132.568 217.236 132.026L212.854 119.095C212.671 118.555 212.861 118.123 213.281 118.131V118.129Z" fill="#8C8CF9"/>
<path d="M189.068 117.695L209.636 118.064C210.057 118.072 210.545 118.516 210.728 119.057L215.443 132.984L194.119 132.743C193.692 132.739 193.196 132.291 193.011 131.742L188.624 118.671C188.44 118.124 188.639 117.688 189.067 117.696L189.068 117.695Z" fill="#8C8CF9"/>
<path d="M64.3362 134.754V240.205H199.177C200.546 240.205 201.656 239.093 201.656 237.722V134.754H64.3362Z" fill="url(#paint2_linear_271_45181)"/>
<path d="M203.262 75.7717L202.095 74.8889V73.6594H200.472L132.997 22.5823L64.7749 73.6594V134.754H202.095V82.0714L203.262 75.7717Z" fill="url(#paint3_linear_271_45181)"/>
<path d="M174.476 28.523H163.119V47.0461H174.476V28.523Z" fill="#7D97F4"/>
<path d="M178.221 31.5238H159.862V26.5235C159.862 26.1431 160.17 25.8349 160.55 25.8349H177.176C177.753 25.8349 178.222 26.3034 178.222 26.8826V31.5227L178.221 31.5238Z" fill="#7D97F4"/>
<path d="M60.1838 83.3878L133.054 27.4165L202.223 81.1535C204.737 83.1067 208.425 81.7383 209.062 78.6167L210.032 73.8637L133.054 15.131L58.5415 72.133C57.2069 73.1536 56.7233 74.9442 57.3613 76.4999L60.1849 83.3878H60.1838Z" fill="url(#paint4_linear_271_45181)"/>
<path d="M204.652 133.5H61.3426C60.8389 133.5 60.4307 133.909 60.4307 134.413V140.463C60.4307 140.968 60.8389 141.377 61.3426 141.377H204.652C205.156 141.377 205.564 140.968 205.564 140.463V134.413C205.564 133.909 205.156 133.5 204.652 133.5Z" fill="url(#paint5_linear_271_45181)"/>
<path d="M87.4771 126.01L176.986 126.01C177.055 126.01 177.112 125.953 177.112 125.884V82.532C177.112 82.4622 177.055 82.4056 176.986 82.4056L87.4771 82.4056C87.4073 82.4056 87.3508 82.4622 87.3508 82.532V125.884C87.3508 125.953 87.4073 126.01 87.4771 126.01Z" fill="white"/>
<path d="M90.5316 123.653H116.57C116.609 123.653 116.64 123.621 116.64 123.583V84.8317C116.64 84.7931 116.609 84.7617 116.57 84.7617H90.5316C90.493 84.7617 90.4617 84.7931 90.4617 84.8317V123.583C90.4617 123.621 90.493 123.653 90.5316 123.653Z" fill="#91B3FA"/>
<path d="M119.328 123.764H145.366C145.405 123.764 145.436 123.733 145.436 123.694V84.9435C145.436 84.9048 145.405 84.8735 145.366 84.8735H119.328C119.289 84.8735 119.258 84.9048 119.258 84.9435V123.694C119.258 123.733 119.289 123.764 119.328 123.764Z" fill="#91B3FA"/>
<path d="M148.123 123.431H174.162C174.201 123.431 174.232 123.4 174.232 123.361V84.6105C174.232 84.5718 174.201 84.5405 174.162 84.5405H148.123C148.085 84.5405 148.053 84.5718 148.053 84.6105V123.361C148.053 123.4 148.085 123.431 148.123 123.431Z" fill="#91B3FA"/>
<g opacity="0.85">
<path d="M196.509 156.289H160.261C160.066 156.289 159.907 156.448 159.907 156.644V233.605C159.907 233.801 160.066 233.959 160.261 233.959H196.509C196.704 233.959 196.863 233.801 196.863 233.605V156.644C196.863 156.448 196.704 156.289 196.509 156.289Z" fill="white"/>
</g>
<path d="M194.906 158.271H161.633C161.438 158.271 161.279 158.429 161.279 158.625V231.494C161.279 231.689 161.438 231.848 161.633 231.848H194.906C195.102 231.848 195.26 231.689 195.26 231.494V158.625C195.26 158.429 195.102 158.271 194.906 158.271Z" fill="#91B3FA"/>
<path opacity="0.85" d="M179.606 158.271H177.592V232.66H179.606V158.271Z" fill="white"/>
<path opacity="0.85" d="M196.033 181.334H160.712V183.283H196.033V181.334Z" fill="white"/>
<path opacity="0.85" d="M195.389 206.185H160.921V208.297H195.389V206.185Z" fill="white"/>
<path opacity="0.85" d="M105.173 156.939H68.9252C68.7298 156.939 68.5713 157.098 68.5713 157.294V234.255C68.5713 234.451 68.7298 234.61 68.9252 234.61H105.173C105.369 234.61 105.527 234.451 105.527 234.255V157.294C105.527 157.098 105.369 156.939 105.173 156.939Z" fill="white"/>
<path d="M103.57 158.921H70.2973C70.1018 158.921 69.9434 159.08 69.9434 159.275V232.144C69.9434 232.34 70.1018 232.498 70.2973 232.498H103.57C103.766 232.498 103.924 232.34 103.924 232.144V159.275C103.924 159.08 103.766 158.921 103.57 158.921Z" fill="#91B3FA"/>
<path opacity="0.85" d="M88.2707 158.921H86.2563V233.31H88.2707V158.921Z" fill="white"/>
<path opacity="0.85" d="M104.697 181.985H69.3762V183.933H104.697V181.985Z" fill="white"/>
<path opacity="0.85" d="M104.053 206.835H69.5847V208.946H104.053V206.835Z" fill="white"/>
<path opacity="0.85" d="M133.918 67.1384C139.913 67.1384 144.772 62.2713 144.772 56.2675C144.772 50.2636 139.913 45.3965 133.918 45.3965C127.924 45.3965 123.064 50.2636 123.064 56.2675C123.064 62.2713 127.924 67.1384 133.918 67.1384Z" fill="white"/>
<path d="M140.605 62.8823C144.252 59.2295 144.252 53.3071 140.605 49.6543C136.958 46.0015 131.045 46.0015 127.398 49.6543C123.751 53.3071 123.751 59.2295 127.398 62.8823C131.045 66.535 136.958 66.535 140.605 62.8823Z" fill="#7D97F4"/>
<path d="M112.796 150.42H152.513C152.734 150.42 152.914 150.6 152.914 150.822V231.323H112.394V150.822C112.394 150.6 112.575 150.42 112.796 150.42Z" fill="url(#paint6_linear_271_45181)"/>
<path d="M115.087 154.278H149.815C150.036 154.278 150.217 154.459 150.217 154.68V230.813H114.686V154.68C114.686 154.459 114.866 154.278 115.087 154.278Z" fill="url(#paint7_linear_271_45181)"/>
<path d="M108.769 228.596H156.781C156.979 228.596 157.139 228.756 157.139 228.953V237.527H108.412V228.953C108.412 228.756 108.572 228.596 108.769 228.596Z" fill="url(#paint8_linear_271_45181)"/>
<path d="M106.703 236.523H160.413C160.611 236.523 160.771 236.684 160.771 236.881V245.728H106.345V236.881C106.345 236.684 106.506 236.523 106.703 236.523Z" fill="url(#paint9_linear_271_45181)"/>
<path d="M241.824 87.9913C257.997 71.7924 257.997 45.5289 241.824 29.3301C225.65 13.1313 199.428 13.1313 183.254 29.3301C167.081 45.5289 167.081 71.7924 183.254 87.9913C199.428 104.19 225.65 104.19 241.824 87.9913Z" fill="white"/>
<path d="M238.553 84.715C252.92 70.3256 252.92 46.9958 238.553 32.6063C224.186 18.2169 200.892 18.2169 186.525 32.6063C172.158 46.9957 172.158 70.3256 186.525 84.715C200.892 99.1044 224.186 99.1044 238.553 84.715Z" fill="#6A6AF4"/>
<rect x="185.531" y="40.3443" width="51.5203" height="35.9649" rx="6" fill="#ECECFE"/>
<ellipse cx="202.831" cy="58.1375" rx="13.5382" ry="13.6288" fill="#000091"/>
<path d="M200.198 46.9694C197.754 49.0515 200.01 53.5944 202.83 57.7588C202.83 53.4051 210.352 50.1872 209.412 48.6729C208.471 47.1586 202.642 44.8872 200.198 46.9694Z" fill="#6A6AF4"/>
<path d="M213.548 55.0225C211.48 52.5617 206.967 54.8333 202.831 57.6726C207.155 57.6726 210.352 65.2442 211.856 64.2977C213.36 63.3513 215.617 57.4833 213.548 55.0225Z" fill="#6A6AF4"/>
<path d="M192.005 60.6802C194.073 63.141 198.586 60.8694 202.722 58.03C198.398 58.03 195.201 50.4585 193.697 51.4049C192.193 52.3514 189.936 58.2194 192.005 60.6802Z" fill="#6A6AF4"/>
<path d="M205.356 68.5484C207.801 66.4662 205.544 61.9233 202.724 57.759C202.724 62.1126 195.202 65.3305 196.143 66.8448C197.083 68.3592 202.912 70.6305 205.356 68.5484Z" fill="#6A6AF4"/>
<ellipse cx="202.83" cy="58.1375" rx="3.38455" ry="3.40721" fill="#D9D9D9"/>
<rect x="221.633" y="44.5086" width="10.1536" height="27.2576" rx="3" fill="#CACAFB"/>
<line x1="224.262" y1="64.2091" x2="229.159" y2="64.2091" stroke="#000091" stroke-width="3" stroke-linecap="round"/>
<line x1="224.262" y1="66.4806" x2="229.159" y2="66.4806" stroke="#000091" stroke-width="3" stroke-linecap="round"/>
<line x1="224.262" y1="68.7519" x2="229.159" y2="68.7519" stroke="#000091" stroke-width="3" stroke-linecap="round"/>
<path d="M237.052 52.0802H237.308C238.413 52.0802 239.308 52.9756 239.308 54.0802V57.6517C239.308 58.7563 238.413 59.6517 237.308 59.6517H237.052V52.0802Z" fill="#D9D9D9"/>
<path d="M237.052 58.5161H237.308C238.413 58.5161 239.308 59.4115 239.308 60.5161V64.0877C239.308 65.1922 238.413 66.0877 237.308 66.0877H237.052V58.5161Z" fill="#D9D9D9"/>
<path d="M276.91 239.504C276.91 239.504 277.532 242.849 277.853 246.162C277.979 247.457 276.992 248.592 275.695 248.659C271.287 248.885 261.858 249.333 258.473 249.214C257.963 249.196 257.626 248.678 257.81 248.202C257.964 247.804 258.266 247.48 258.651 247.297L274.163 239.977L276.91 239.504Z" fill="#000091"/>
<path d="M277.376 237.531L276.939 241.543C276.939 241.543 274.222 242.841 272.344 241.426L273.433 236.95L277.376 237.531Z" fill="url(#paint10_linear_271_45181)"/>
<path d="M276.302 162.195C276.517 163.24 277.899 214.406 272.656 237.393C272.57 237.768 272.763 238.152 273.121 238.294C273.962 238.629 275.609 239.11 277.578 239.157C278.188 239.171 278.731 238.769 278.897 238.182C280.407 232.846 287.635 206.115 288.368 180.64C289.188 152.172 288.359 179.671 288.359 179.671L287.552 162.087L276.302 162.197V162.195Z" fill="#000091"/>
<path d="M294.85 241.081C294.85 241.081 295.806 242.763 296.76 247.249C296.932 248.059 296.373 248.841 295.551 248.93C294.096 249.088 291.856 249.293 290.061 249.298C289.232 249.3 288.58 248.584 288.673 247.76C288.856 246.118 289.45 243.421 291.344 241.305L294.851 241.081H294.85Z" fill="#000091"/>
<path d="M295.626 235.918L294.574 241.989C294.574 241.989 293.485 242.816 291.31 242.245L291.777 235.72L295.625 235.919L295.626 235.918Z" fill="url(#paint11_linear_271_45181)"/>
<path d="M297.934 163.559C302.658 190.518 297.601 230.304 295.841 238.098C295.733 238.575 295.353 238.944 294.872 239.028C294.054 239.172 292.709 239.296 291.377 238.922C290.918 238.794 290.592 238.384 290.57 237.907C290.264 231.622 290.339 193.019 286.032 177.805C285.813 177.034 285.335 176.364 284.679 175.906L276.545 170.23L275.837 160.938L297.934 163.559Z" fill="#000091"/>
<path d="M268.983 112.67C282.368 112.32 297.174 115.921 297.174 115.921C301.387 139.203 298.35 166.132 298.35 166.132C288.012 168.953 276.28 164.678 276.28 164.678C274.465 154.947 266.167 127.593 266.167 127.593C259.618 126.842 254.213 125.004 249.752 122.548C253.099 118.585 254.647 113.571 255.312 110.609C260.058 112.037 264.855 112.778 268.983 112.671V112.67Z" fill="#CE0500"/>
<path d="M229.252 93.2986C230.552 91.695 232.224 92.4314 232.224 92.4314C234.273 100.747 244.666 107.407 255.31 110.608C254.646 113.57 253.098 118.585 249.751 122.547C232.045 112.797 229.252 93.2974 229.252 93.2974V93.2986Z" fill="url(#paint12_linear_271_45181)"/>
<path d="M229.576 93.7003C229.443 94.1398 231.043 94.7914 231.964 92.991C231.989 92.1321 232.475 88.4478 231.956 87.7527C229.191 84.0531 223.857 79.4321 223.857 79.4321C222.971 80.3241 223.715 81.1853 223.715 81.1853L226.307 83.8387C225.779 84.8154 225.132 85.6413 224.836 86.8196C224.613 87.7115 224.764 88.6611 225.22 89.467C225.679 90.2753 226.303 91.3262 226.892 92.1474C228.007 93.7027 229.575 93.6992 229.575 93.6992L229.576 93.7003Z" fill="url(#paint13_linear_271_45181)"/>
<path d="M292.163 128.952L297.174 115.92C297.174 115.92 309.759 124.31 311.919 135.079C309.558 135.276 305.264 135.932 301.076 138.101C300.103 133.016 292.163 128.952 292.163 128.952Z" fill="#CE0500"/>
<path d="M281.352 141.273C281.352 141.273 295.466 149.086 300.139 142.255C301.109 140.836 301.33 139.434 301.075 138.101C305.263 135.933 309.557 135.276 311.918 135.079C312.568 138.325 312.274 141.788 310.399 145.303C302.247 160.584 279.527 144.757 279.527 144.757L281.352 141.273Z" fill="url(#paint14_linear_271_45181)"/>
<path d="M282.439 101.654L286.816 113.951C286.889 114.155 286.807 114.383 286.618 114.489C285.463 115.143 281.298 117.041 276.226 113.888C275.698 113.559 275.336 113.018 275.25 112.402L273.769 101.737L282.439 101.654Z" fill="url(#paint15_linear_271_45181)"/>
<path d="M273.062 90.3188C273.062 90.3188 268.468 99.1813 269.102 102.738C269.735 106.294 275.53 105.983 280.565 103.042L284.012 93.487L273.063 90.3188H273.062Z" fill="url(#paint16_linear_271_45181)"/>
<path d="M280.297 98.3684C280.09 98.2789 280.012 98.0279 280.133 97.8382C280.503 97.2609 281.194 96.085 281.408 95.0588C281.408 95.0588 282.244 94.5109 279.257 93.8252C276.269 93.1395 271.813 92.072 270.854 89.5401C269.92 87.0705 272.254 80.8166 276.119 85.745C276.267 85.9324 276.551 85.9335 276.695 85.7438C277.312 84.9215 278.943 83.2119 281.238 84.2169C283.385 85.1571 283.641 86.7241 283.619 87.5159C283.613 87.7492 283.822 87.9271 284.049 87.8823C285.128 87.6655 287.721 87.4629 288.957 90.1174C289.976 92.303 289.34 93.5531 288.755 94.1657C288.566 94.3648 288.653 94.6877 288.916 94.7654C289.629 94.9763 290.552 95.5713 290.476 97.2397C290.371 99.5455 287.796 99.3675 287.062 99.2698C286.942 99.2533 286.821 99.2957 286.741 99.3876C286.12 100.09 283.318 103.073 280.258 103.458C279.993 103.491 279.785 103.231 279.87 102.978L281.159 99.106C281.219 98.9257 281.131 98.7301 280.958 98.6547L280.298 98.3696L280.297 98.3684Z" fill="#000091"/>
<path d="M279.768 98.921C279.768 98.921 283.076 96.6011 283.339 98.5251C283.6 100.45 280.366 101.346 278.753 100.642L279.768 98.921Z" fill="url(#paint17_linear_271_45181)"/>
<path d="M284.238 153.62L276.549 126.727C276.462 126.422 276.202 126.199 275.886 126.162C274.494 126 270.456 125.543 265.797 125.148C260.183 124.672 253.664 124.287 249.767 124.615C249.213 124.663 248.879 125.249 249.125 125.748C251.34 130.237 260.454 148.497 265.017 154.478C265.168 154.676 265.401 154.793 265.651 154.791L283.491 154.625C284.009 154.62 284.381 154.121 284.239 153.621L284.238 153.62Z" fill="#000091"/>
<path d="M282.379 147.123C282.379 147.123 283.449 142.712 283.018 141.147C282.586 139.582 281.748 137.57 278.958 138.018C276.167 138.464 272.876 139.642 272.876 139.642C272.876 139.642 273.042 141.681 275.163 141.023L273.848 142.042C273.848 142.042 274.036 143.674 275.826 142.802L274.603 144.154C274.603 144.154 275.372 145.495 276.69 144.635C278.007 143.774 278.639 147.655 282.376 147.124L282.379 147.123Z" fill="url(#paint18_linear_271_45181)"/>
<defs>
<linearGradient id="paint0_linear_271_45181" x1="62.5846" y1="-16.1225" x2="59.9026" y2="16.7684" gradientUnits="userSpaceOnUse">
<stop stop-color="#FF928E"/>
<stop offset="1" stop-color="#FE7062"/>
</linearGradient>
<linearGradient id="paint1_linear_271_45181" x1="234.67" y1="-2.09372" x2="231.988" y2="30.7961" gradientUnits="userSpaceOnUse">
<stop stop-color="#FF928E"/>
<stop offset="1" stop-color="#FE7062"/>
</linearGradient>
<linearGradient id="paint2_linear_271_45181" x1="218.049" y1="103.522" x2="418.851" y2="-92.3837" gradientUnits="userSpaceOnUse">
<stop stop-color="#FF928E"/>
<stop offset="1" stop-color="#FE7062"/>
</linearGradient>
<linearGradient id="paint3_linear_271_45181" x1="177.062" y1="61.5105" x2="377.862" y2="-134.394" gradientUnits="userSpaceOnUse">
<stop stop-color="#FF928E"/>
<stop offset="1" stop-color="#FE7062"/>
</linearGradient>
<linearGradient id="paint4_linear_271_45181" x1="165.308" y1="-33.2501" x2="129.323" y2="89.009" gradientUnits="userSpaceOnUse">
<stop stop-color="#E1473D"/>
<stop offset="1" stop-color="#E9605A"/>
</linearGradient>
<linearGradient id="paint5_linear_271_45181" x1="135.839" y1="86.1888" x2="130.735" y2="177.936" gradientUnits="userSpaceOnUse">
<stop stop-color="#E1473D"/>
<stop offset="1" stop-color="#E9605A"/>
</linearGradient>
<linearGradient id="paint6_linear_271_45181" x1="135.271" y1="188.247" x2="50.5478" y2="276.865" gradientUnits="userSpaceOnUse">
<stop stop-color="#FF928E"/>
<stop offset="1" stop-color="#FE7062"/>
</linearGradient>
<linearGradient id="paint7_linear_271_45181" x1="313.171" y1="88.3248" x2="245.188" y2="127.44" gradientUnits="userSpaceOnUse">
<stop stop-color="#FF928E"/>
<stop offset="1" stop-color="#FE7062"/>
</linearGradient>
<linearGradient id="paint8_linear_271_45181" x1="142.862" y1="158.471" x2="139.969" y2="179.844" gradientUnits="userSpaceOnUse">
<stop stop-color="#E1473D"/>
<stop offset="1" stop-color="#E9605A"/>
</linearGradient>
<linearGradient id="paint9_linear_271_45181" x1="138.795" y1="183.977" x2="130.709" y2="272.209" gradientUnits="userSpaceOnUse">
<stop stop-color="#FF928E"/>
<stop offset="1" stop-color="#FE7062"/>
</linearGradient>
<linearGradient id="paint10_linear_271_45181" x1="277.426" y1="239.393" x2="272.359" y2="239.441" gradientUnits="userSpaceOnUse">
<stop stop-color="#FEBBBA"/>
<stop offset="1" stop-color="#FF928E"/>
</linearGradient>
<linearGradient id="paint11_linear_271_45181" x1="295.687" y1="238.961" x2="291.311" y2="239.002" gradientUnits="userSpaceOnUse">
<stop stop-color="#FEBBBA"/>
<stop offset="1" stop-color="#FF928E"/>
</linearGradient>
<linearGradient id="paint12_linear_271_45181" x1="255.322" y1="107.177" x2="229.431" y2="107.42" gradientUnits="userSpaceOnUse">
<stop stop-color="#FEBBBA"/>
<stop offset="1" stop-color="#FF928E"/>
</linearGradient>
<linearGradient id="paint13_linear_271_45181" x1="235.107" y1="103.108" x2="252.897" y2="142.511" gradientUnits="userSpaceOnUse">
<stop stop-color="#FEBBBA"/>
<stop offset="1" stop-color="#FF928E"/>
</linearGradient>
<linearGradient id="paint14_linear_271_45181" x1="312.32" y1="143.369" x2="279.557" y2="143.677" gradientUnits="userSpaceOnUse">
<stop stop-color="#FEBBBA"/>
<stop offset="1" stop-color="#FF928E"/>
</linearGradient>
<linearGradient id="paint15_linear_271_45181" x1="286.831" y1="108.526" x2="273.877" y2="108.648" gradientUnits="userSpaceOnUse">
<stop stop-color="#FEBBBA"/>
<stop offset="1" stop-color="#FF928E"/>
</linearGradient>
<linearGradient id="paint16_linear_271_45181" x1="270.667" y1="100.507" x2="284.841" y2="91.6907" gradientUnits="userSpaceOnUse">
<stop stop-color="#FEBBBA"/>
<stop offset="1" stop-color="#FF928E"/>
</linearGradient>
<linearGradient id="paint17_linear_271_45181" x1="274.439" y1="103.717" x2="287.191" y2="95.7843" gradientUnits="userSpaceOnUse">
<stop stop-color="#FEBBBA"/>
<stop offset="1" stop-color="#FF928E"/>
</linearGradient>
<linearGradient id="paint18_linear_271_45181" x1="283.121" y1="142.563" x2="272.877" y2="142.563" gradientUnits="userSpaceOnUse">
<stop stop-color="#FEBBBA"/>
<stop offset="1" stop-color="#FF928E"/>
</linearGradient>
</defs>
</svg>
