<svg width="39" height="35" viewBox="0 0 39 35" fill="none" xmlns="http://www.w3.org/2000/svg">
<path fill-rule="evenodd" clip-rule="evenodd" d="M36.5833 20.6245H31.4583V0.124512H36.5833C37.5267 0.124512 38.2916 0.889359 38.2916 1.83284V18.9162C38.2916 19.8597 37.5267 20.6245 36.5833 20.6245ZM27.541 22.8334L16.6077 33.7667C16.3073 34.068 15.8309 34.1023 15.4905 33.847L14.0333 32.7537C13.2057 32.1324 12.833 31.0744 13.0885 30.0716L15.0583 22.3328H4.12492C2.23795 22.3328 0.708254 20.8032 0.708254 18.9162V15.3218C0.707795 14.8754 0.794853 14.4331 0.964506 14.0201L6.25351 1.18368C6.51652 0.54345 7.13986 0.125195 7.83201 0.124512H26.3333C27.2767 0.124512 28.0416 0.889359 28.0416 1.83284V21.6256C28.0416 22.0786 27.8614 22.5131 27.541 22.8334Z" fill="#B34000"/>
</svg>
