<svg width="347" height="253" viewBox="0 0 347 253" fill="none" xmlns="http://www.w3.org/2000/svg">
<rect x="172.486" y="235.211" width="174.014" height="17.2892" fill="#F8DEB9" stroke="#F8DEB9"/>
<path d="M157.452 216.422H190.237C195.208 216.422 199.237 212.392 199.237 207.422V157.897" stroke="#3A3A3A" stroke-width="4" stroke-linecap="round" stroke-linejoin="round"/>
<path d="M157.452 225.566H189.927C200.42 225.566 208.927 217.06 208.927 206.566V157.897" stroke="#3A3A3A" stroke-width="4" stroke-linecap="round" stroke-linejoin="round"/>
<path d="M229.517 157.897V207.422C229.517 212.392 233.546 216.422 238.517 216.422H265.33C270.3 216.422 274.33 212.392 274.33 207.422V192.646" stroke="#000091" stroke-width="4" stroke-linecap="round" stroke-linejoin="round"/>
<path d="M219.222 157.897V206.566C219.222 217.06 227.728 225.566 238.222 225.566H266.23C276.724 225.566 285.23 217.06 285.23 206.566V192.036" stroke="#CE0500" stroke-width="4" stroke-linecap="round" stroke-linejoin="round"/>
<rect x="188.337" y="77.4242" width="50.8691" height="97.5422" rx="6" fill="#ECECFE"/>
<path d="M236.206 152.41C237.863 152.41 238.838 153.802 237.42 154.658C233.686 156.912 224.505 158.506 213.771 158.506C203.038 158.506 193.857 156.912 190.123 154.658C188.705 153.802 189.68 152.41 191.337 152.41H236.206Z" fill="#CACAFB"/>
<rect x="76.9093" y="190.207" width="82.9651" height="57.9157" rx="6" fill="#ECECFE"/>
<ellipse cx="104.766" cy="218.86" rx="21.801" ry="21.947" fill="#000091"/>
<path d="M100.527 200.876C96.5907 204.229 100.224 211.545 104.766 218.251C104.766 211.24 116.878 206.058 115.364 203.619C113.85 201.181 104.463 197.523 100.527 200.876Z" fill="#6A6AF4"/>
<path d="M122.025 213.844C118.695 209.882 111.428 213.54 104.766 218.112C111.73 218.112 116.878 230.305 119.3 228.78C121.723 227.256 125.356 217.807 122.025 213.844Z" fill="#6A6AF4"/>
<path d="M87.3332 222.955C90.6639 226.918 97.9308 223.26 104.592 218.687C97.628 218.687 92.4805 206.495 90.0582 208.019C87.6358 209.543 84.0025 218.992 87.3332 222.955Z" fill="#6A6AF4"/>
<path d="M108.834 235.625C112.77 232.272 109.136 224.957 104.594 218.251C104.594 225.262 92.4827 230.444 93.9966 232.882C95.5106 235.321 104.897 238.978 108.834 235.625Z" fill="#6A6AF4"/>
<ellipse cx="104.766" cy="218.86" rx="5.45026" ry="5.48675" fill="#D9D9D9"/>
<rect x="135.045" y="196.913" width="16.3508" height="43.894" rx="3" fill="#CACAFB"/>
<line x1="138.362" y1="229.553" x2="148.079" y2="229.553" stroke="#000091" stroke-width="3" stroke-linecap="round"/>
<line x1="138.362" y1="233.211" x2="148.079" y2="233.211" stroke="#000091" stroke-width="3" stroke-linecap="round"/>
<line x1="138.362" y1="236.869" x2="148.079" y2="236.869" stroke="#000091" stroke-width="3" stroke-linecap="round"/>
<path d="M159.874 209.106H161.508C162.612 209.106 163.508 210.002 163.508 211.106V219.299C163.508 220.403 162.612 221.299 161.508 221.299H159.874V209.106Z" fill="#D9D9D9"/>
<path d="M159.874 219.47H161.508C162.612 219.47 163.508 220.365 163.508 221.47V229.663C163.508 230.767 162.612 231.663 161.508 231.663H159.874V219.47Z" fill="#D9D9D9"/>
<rect x="254.346" y="165.212" width="75.6981" height="3.04819" fill="#000091"/>
<rect x="254.346" y="198.133" width="75.6981" height="3.0482" fill="#000091"/>
<rect x="250.106" y="163.383" width="5.45026" height="6.70602" rx="2.72513" fill="#CACAFB"/>
<rect x="257.374" y="159.116" width="11.7447" height="48.7711" rx="5.87233" fill="#ECECFE"/>
<rect x="269.118" y="159.116" width="11.7447" height="48.7711" rx="5.87233" fill="#ECECFE"/>
<rect x="280.863" y="159.116" width="11.7447" height="48.7711" rx="5.87233" fill="#ECECFE"/>
<rect x="292.608" y="159.116" width="11.7447" height="48.7711" rx="5.87234" fill="#ECECFE"/>
<rect x="304.352" y="159.116" width="11.7447" height="48.7711" rx="5.87233" fill="#ECECFE"/>
<rect x="316.097" y="159.116" width="11.7447" height="48.7711" rx="5.87233" fill="#ECECFE"/>
<line x1="269.38" y1="163.383" x2="269.38" y2="203.01" stroke="#6A6AF4"/>
<line x1="280.886" y1="163.383" x2="280.886" y2="203.01" stroke="#6A6AF4"/>
<line x1="292.997" y1="163.383" x2="292.997" y2="203.01" stroke="#6A6AF4"/>
<line x1="304.504" y1="163.383" x2="304.504" y2="203.01" stroke="#6A6AF4"/>
<line x1="316.615" y1="163.383" x2="316.615" y2="203.01" stroke="#6A6AF4"/>
<rect x="177.986" y="62.0869" width="163.014" height="184.913" stroke="#ECECFE" stroke-width="12"/>
<path d="M347 0.0001297V56.0869H173.197L347 0.0001297Z" fill="#FF928E"/>
<path d="M41.0991 228.061C40.3841 226.943 40.7023 225.452 41.8104 224.728L47.9862 220.704C38.9188 218.114 30.6158 213.337 23.7921 206.788C16.9685 200.238 11.8302 192.114 8.82631 183.115L20.8399 179.102C25.8189 194.012 38.0798 205.281 53.274 208.91L47.2022 199.446C46.4872 198.327 46.8055 196.836 47.9136 196.112L53.196 192.672C54.3063 191.951 55.7869 192.272 56.5052 193.388L71.066 216.088C71.4108 216.625 71.5289 217.277 71.3953 217.903C71.2617 218.529 70.8882 219.074 70.3546 219.421L47.8187 234.097C46.7106 234.821 45.2273 234.5 44.5095 233.381L41.0963 228.061L41.0991 228.061Z" fill="url(#paint0_linear_268_68418)"/>
<defs>
<linearGradient id="paint0_linear_268_68418" x1="107.74" y1="237.777" x2="24.9763" y2="193.382" gradientUnits="userSpaceOnUse">
<stop stop-color="#ECECFE"/>
<stop offset="1" stop-color="#000091" stop-opacity="0"/>
</linearGradient>
</defs>
</svg>
