<svg width="39" height="35" viewBox="0 0 39 35" fill="none" xmlns="http://www.w3.org/2000/svg">
<path fill-rule="evenodd" clip-rule="evenodd" d="M2.41659 14.3745H7.54159V34.8745H2.41659C1.4731 34.8745 0.708252 34.1096 0.708252 33.1662V16.0828C0.708252 15.1393 1.4731 14.3745 2.41659 14.3745ZM11.4588 12.1656L22.3921 1.23229C22.6926 0.930988 23.1689 0.896752 23.5094 1.152L24.9666 2.24533C25.7942 2.8666 26.1668 3.92465 25.9113 4.92741L23.9416 12.6662H34.8749C36.7619 12.6662 38.2916 14.1959 38.2916 16.0828V19.6772C38.292 20.1237 38.205 20.5659 38.0353 20.9789L32.748 33.817C32.4843 34.4572 31.8602 34.8745 31.1678 34.8745H12.6666C11.7231 34.8745 10.9583 34.1096 10.9583 33.1662V13.3734C10.9583 12.9204 11.1384 12.4859 11.4588 12.1656Z" fill="#000091"/>
</svg>
