<svg width="164" height="164" viewBox="0 0 164 164" fill="none" xmlns="http://www.w3.org/2000/svg">
<circle cx="82" cy="82" r="70.5" fill="#6A6AF4" stroke="white" stroke-width="9"/>
<rect x="42" y="42" width="78" height="78" rx="2" fill="#D9D9D9"/>
<circle cx="81.4436" cy="81.4431" r="35.8977" fill="white"/>
<circle cx="81.4435" cy="81.4432" r="31.4659" fill="#000091"/>
<path d="M75.4358 55.5025C69.7767 60.4231 75.0006 71.1588 81.5303 81C81.5303 70.7115 98.9425 63.1069 96.766 59.5283C94.5895 55.9497 81.0948 50.5819 75.4358 55.5025Z" fill="#6A6AF4"/>
<path d="M106.498 74.5497C101.577 68.8906 90.8415 74.1145 81.0003 80.6442C91.2888 80.6442 98.8933 98.0564 102.472 95.8799C106.051 93.7034 111.418 80.2087 106.498 74.5497Z" fill="#6A6AF4"/>
<path d="M56.3251 87.4503C61.087 93.1094 71.4764 87.8855 81.0001 81.3558C71.0435 81.3558 63.6842 63.9436 60.221 66.1201C56.7579 68.2966 51.5633 81.7913 56.3251 87.4503Z" fill="#6A6AF4"/>
<path d="M87.45 105.675C93.109 100.913 87.8851 90.5238 81.3555 81C81.3555 90.9567 63.9432 98.3159 66.1197 101.779C68.2963 105.242 81.7909 110.437 87.45 105.675Z" fill="#6A6AF4"/>
<circle cx="81.4433" cy="81.4431" r="7.53409" fill="#D9D9D9"/>
<rect x="58.8408" y="55.2954" width="45.2045" height="4.43182" fill="white"/>
<rect x="69.4775" y="47.3181" width="23.9318" height="4.43182" fill="white"/>
<rect x="69.4775" y="111.136" width="23.9318" height="4.43182" fill="white"/>
<rect x="52.6367" y="63.2727" width="57.6136" height="4.43182" fill="white"/>
<rect x="49.0908" y="71.25" width="64.7045" height="4.43182" fill="white"/>
<rect width="45.2045" height="4.43182" transform="matrix(1 0 0 -1 58.8408 107.591)" fill="white"/>
<rect width="57.6136" height="4.43182" transform="matrix(1 0 0 -1 52.6367 99.6136)" fill="white"/>
<rect width="64.7045" height="4.43182" transform="matrix(1 0 0 -1 49.0908 91.6364)" fill="white"/>
<rect x="48.2041" y="79.2273" width="66.4773" height="4.43182" fill="white"/>
</svg>
